<svg xmlns="http://www.w3.org/2000/svg" xmlns:xlink="http://www.w3.org/1999/xlink" xmlns:lucid="lucid" width="2262" height="702"><g transform="translate(441 221)" lucid:page-tab-id="0_0"><path d="M-440-214a6 6 0 0 1 6-6h2248a6 6 0 0 1 6 6v688a6 6 0 0 1-6 6H-434a6 6 0 0 1-6-6z" stroke="#000" stroke-width="2" fill="#fff"/><path d="M580-177a12 12 0 0 1 12-12h556a12 12 0 0 1 12 12V24a12 12 0 0 1-12 12H592a12 12 0 0 1-12-12z" fill="#fff"/><path d="M580-149h580v38H580z" fill="#fff"/><path d="M580-112h580v38H580z" fill="#fff"/><path d="M580-75h580v38H580z" fill="#fff"/><path d="M580-38h580V0H580z" fill="#fff"/><path d="M580-1h580v25a12 12 0 0 1-12 12H592a12 12 0 0 1-12-12z" fill="#fff"/><path d="M581-149h578-578zM580-177a12 12 0 0 1 12-12h556a12 12 0 0 1 12 12V24a12 12 0 0 1-12 12H592a12 12 0 0 1-12-12zM776.3-148V35z" stroke="#000" stroke-width="2" fill="none"/><use xlink:href="#a" transform="matrix(1,0,0,1,590,-189) translate(249.34136284722223 28.08376736111111)"/><use xlink:href="#b" transform="matrix(1,0,0,1,585,-146.5) translate(0 24.08376736111111)"/><use xlink:href="#c" transform="matrix(1,0,0,1,781.3035869421972,-146.5) translate(0 24.08376736111111)"/><use xlink:href="#d" transform="matrix(1,0,0,1,781.3035869421972,-146.5) translate(32.03125 24.08376736111111)"/><use xlink:href="#e" transform="matrix(1,0,0,1,585,-109.5) translate(0 24.08376736111111)"/><use xlink:href="#f" transform="matrix(1,0,0,1,781.3035869421972,-109.5) translate(0 24.08376736111111)"/><use xlink:href="#g" transform="matrix(1,0,0,1,781.3035869421972,-109.5) translate(129.52473958333334 24.08376736111111)"/><use xlink:href="#h" transform="matrix(1,0,0,1,781.3035869421972,-109.5) translate(230.01302083333334 24.08376736111111)"/><use xlink:href="#i" transform="matrix(1,0,0,1,781.3035869421972,-109.5) translate(283.68055555555554 24.08376736111111)"/><use xlink:href="#j" transform="matrix(1,0,0,1,585,-72.5) translate(0 24.08376736111111)"/><use xlink:href="#f" transform="matrix(1,0,0,1,781.3035869421972,-72.5) translate(0 24.08376736111111)"/><use xlink:href="#g" transform="matrix(1,0,0,1,781.3035869421972,-72.5) translate(129.52473958333334 24.08376736111111)"/><use xlink:href="#h" transform="matrix(1,0,0,1,781.3035869421972,-72.5) translate(230.01302083333334 24.08376736111111)"/><use xlink:href="#i" transform="matrix(1,0,0,1,781.3035869421972,-72.5) translate(283.68055555555554 24.08376736111111)"/><use xlink:href="#k" transform="matrix(1,0,0,1,585,-35.5) translate(0 24.08376736111111)"/><use xlink:href="#l" transform="matrix(1,0,0,1,781.3035869421972,-35.5) translate(0 24.08376736111111)"/><use xlink:href="#m" transform="matrix(1,0,0,1,585,1.5) translate(0 24.08376736111111)"/><use xlink:href="#c" transform="matrix(1,0,0,1,781.3035869421972,1.5) translate(0 24.08376736111111)"/><use xlink:href="#n" transform="matrix(1,0,0,1,781.3035869421972,1.5) translate(32.03125 24.08376736111111)"/><use xlink:href="#o" transform="matrix(1,0,0,1,781.3035869421972,1.5) translate(74.91319444444444 24.08376736111111)"/><use xlink:href="#i" transform="matrix(1,0,0,1,781.3035869421972,1.5) translate(136.68619791666669 24.08376736111111)"/><path d="M1300-177a12 12 0 0 1 12-12h476a12 12 0 0 1 12 12v90a12 12 0 0 1-12 12h-476a12 12 0 0 1-12-12z" fill="#fff"/><path d="M1300-149h500v38h-500z" fill="#fff"/><path d="M1300-112h500v25a12 12 0 0 1-12 12h-476a12 12 0 0 1-12-12z" fill="#fff"/><path d="M1301-149h498-498zM1300-177a12 12 0 0 1 12-12h476a12 12 0 0 1 12 12v90a12 12 0 0 1-12 12h-476a12 12 0 0 1-12-12zM1440.23-148v72z" stroke="#000" stroke-width="2" fill="none"/><use xlink:href="#p" transform="matrix(1,0,0,1,1310,-189) translate(179.36089409722223 28.08376736111111)"/><use xlink:href="#b" transform="matrix(1,0,0,1,1305,-146.5) translate(42.81119791666667 24.08376736111111)"/><use xlink:href="#c" transform="matrix(1,0,0,1,1445.2331019648768,-146.5) translate(0 24.08376736111111)"/><use xlink:href="#d" transform="matrix(1,0,0,1,1445.2331019648768,-146.5) translate(32.03125 24.08376736111111)"/><use xlink:href="#q" transform="matrix(1,0,0,1,1305,-109.5) translate(20.53472222222223 24.08376736111111)"/><use xlink:href="#c" transform="matrix(1,0,0,1,1445.2331019648768,-109.5) translate(0 24.08376736111111)"/><use xlink:href="#n" transform="matrix(1,0,0,1,1445.2331019648768,-109.5) translate(32.03125 24.08376736111111)"/><use xlink:href="#g" transform="matrix(1,0,0,1,1445.2331019648768,-109.5) translate(74.91319444444444 24.08376736111111)"/><use xlink:href="#h" transform="matrix(1,0,0,1,1445.2331019648768,-109.5) translate(175.40147569444446 24.08376736111111)"/><use xlink:href="#i" transform="matrix(1,0,0,1,1445.2331019648768,-109.5) translate(229.06901041666669 24.08376736111111)"/><path d="M-20-177a12 12 0 0 1 12-12h496a12 12 0 0 1 12 12v90a12 12 0 0 1-12 12H-8a12 12 0 0 1-12-12z" fill="#fff"/><path d="M-20-149h520v38H-20z" fill="#fff"/><path d="M-20-112h520v25a12 12 0 0 1-12 12H-8a12 12 0 0 1-12-12z" fill="#fff"/><path d="M-19-149h518-518zM-20-177a12 12 0 0 1 12-12h496a12 12 0 0 1 12 12v90a12 12 0 0 1-12 12H-8a12 12 0 0 1-12-12zM126.4-148v72z" stroke="#000" stroke-width="2" fill="none"/><use xlink:href="#r" transform="matrix(1,0,0,1,-10,-189) translate(179.736328125 28.08376736111111)"/><use xlink:href="#b" transform="matrix(1,0,0,1,-15,-146.5) translate(45.81119791666667 24.08376736111111)"/><use xlink:href="#c" transform="matrix(1,0,0,1,131.40383059456843,-146.5) translate(0 24.08376736111111)"/><use xlink:href="#d" transform="matrix(1,0,0,1,131.40383059456843,-146.5) translate(32.03125 24.08376736111111)"/><use xlink:href="#s" transform="matrix(1,0,0,1,-15,-109.5) translate(5.815538194444443 24.08376736111111)"/><use xlink:href="#t" transform="matrix(1,0,0,1,131.40383059456843,-109.5) translate(0 24.08376736111111)"/><use xlink:href="#g" transform="matrix(1,0,0,1,131.40383059456843,-109.5) translate(129.56814236111111 24.08376736111111)"/><use xlink:href="#h" transform="matrix(1,0,0,1,131.40383059456843,-109.5) translate(230.05642361111111 24.08376736111111)"/><use xlink:href="#i" transform="matrix(1,0,0,1,131.40383059456843,-109.5) translate(283.72395833333337 24.08376736111111)"/><path d="M559 17.5h-13a6 6 0 0 1-6-6V-163a6 6 0 0 0-6-6h-13.6M579 17.5h-20m0-10v20M501.22-169h20m-20 10l20-10m-20-10l20 10" stroke="#3a414a" fill="none"/><path d="M1300-45.23a12 12 0 0 1 12-12h456a12 12 0 0 1 12 12v201a12 12 0 0 1-12 12h-456a12 12 0 0 1-12-12z" fill="#fff"/><path d="M1300-17.23h480v38h-480z" fill="#fff"/><path d="M1300 19.77h480v38h-480z" fill="#fff"/><path d="M1300 56.77h480v38h-480z" fill="#fff"/><path d="M1300 93.77h480v38h-480z" fill="#fff"/><path d="M1300 130.77h480v25a12 12 0 0 1-12 12h-456a12 12 0 0 1-12-12z" fill="#fff"/><path d="M1301-17.23h478-478zM1300-45.23a12 12 0 0 1 12-12h456a12 12 0 0 1 12 12v201a12 12 0 0 1-12 12h-456a12 12 0 0 1-12-12zM1474.32-16.23v183z" stroke="#000" stroke-width="2" fill="none"/><use xlink:href="#u" transform="matrix(1,0,0,1,1310,-57.23354166666661) translate(189.32074652777777 28.08376736111111)"/><use xlink:href="#b" transform="matrix(1,0,0,1,1305,-14.73354166666661) translate(59.81119791666667 24.08376736111111)"/><use xlink:href="#c" transform="matrix(1,0,0,1,1479.3157303984622,-14.73354166666661) translate(0 24.08376736111111)"/><use xlink:href="#d" transform="matrix(1,0,0,1,1479.3157303984622,-14.73354166666661) translate(32.03125 24.08376736111111)"/><use xlink:href="#v" transform="matrix(1,0,0,1,1305,22.26645833333339) translate(12.681206597222243 24.08376736111111)"/><use xlink:href="#c" transform="matrix(1,0,0,1,1479.3157303984622,22.26645833333339) translate(0 24.08376736111111)"/><use xlink:href="#n" transform="matrix(1,0,0,1,1479.3157303984622,22.26645833333339) translate(32.03125 24.08376736111111)"/><use xlink:href="#o" transform="matrix(1,0,0,1,1479.3157303984622,22.26645833333339) translate(74.91319444444444 24.08376736111111)"/><use xlink:href="#i" transform="matrix(1,0,0,1,1479.3157303984622,22.26645833333339) translate(136.68619791666669 24.08376736111111)"/><use xlink:href="#w" transform="matrix(1,0,0,1,1305,59.26645833333339) translate(44.90776909722223 24.08376736111111)"/><use xlink:href="#x" transform="matrix(1,0,0,1,1479.3157303984622,59.26645833333339) translate(0 24.08376736111111)"/><use xlink:href="#o" transform="matrix(1,0,0,1,1479.3157303984622,59.26645833333339) translate(115.98307291666666 24.08376736111111)"/><use xlink:href="#i" transform="matrix(1,0,0,1,1479.3157303984622,59.26645833333339) translate(177.75607638888889 24.08376736111111)"/><use xlink:href="#y" transform="matrix(1,0,0,1,1305,96.26645833333339) translate(4.239366319444443 24.08376736111111)"/><use xlink:href="#c" transform="matrix(1,0,0,1,1479.3157303984622,96.26645833333339) translate(0 24.08376736111111)"/><use xlink:href="#n" transform="matrix(1,0,0,1,1479.3157303984622,96.26645833333339) translate(32.03125 24.08376736111111)"/><use xlink:href="#o" transform="matrix(1,0,0,1,1479.3157303984622,96.26645833333339) translate(74.91319444444444 24.08376736111111)"/><use xlink:href="#i" transform="matrix(1,0,0,1,1479.3157303984622,96.26645833333339) translate(136.68619791666669 24.08376736111111)"/><use xlink:href="#z" transform="matrix(1,0,0,1,1305,133.2664583333334) translate(35.01193576388889 24.08376736111111)"/><use xlink:href="#c" transform="matrix(1,0,0,1,1479.3157303984622,133.2664583333334) translate(0 24.08376736111111)"/><use xlink:href="#n" transform="matrix(1,0,0,1,1479.3157303984622,133.2664583333334) translate(32.03125 24.08376736111111)"/><use xlink:href="#o" transform="matrix(1,0,0,1,1479.3157303984622,133.2664583333334) translate(74.91319444444444 24.08376736111111)"/><use xlink:href="#i" transform="matrix(1,0,0,1,1479.3157303984622,133.2664583333334) translate(136.68619791666669 24.08376736111111)"/><path d="M820 65.77a12 12 0 0 1 12-12h276a12 12 0 0 1 12 12v90a12 12 0 0 1-12 12H832a12 12 0 0 1-12-12z" fill="#fff"/><path d="M820 93.77h300v38H820z" fill="#fff"/><path d="M820 130.77h300v25a12 12 0 0 1-12 12H832a12 12 0 0 1-12-12z" fill="#fff"/><path d="M821 93.77h298-298zM820 65.77a12 12 0 0 1 12-12h276a12 12 0 0 1 12 12v90a12 12 0 0 1-12 12H832a12 12 0 0 1-12-12zM981.18 94.77v72z" stroke="#000" stroke-width="2" fill="none"/><use xlink:href="#A" transform="matrix(1,0,0,1,830,53.76645833333339) translate(59.607204861111114 28.08376736111111)"/><use xlink:href="#b" transform="matrix(1,0,0,1,825,96.26645833333339) translate(53.31119791666667 24.08376736111111)"/><use xlink:href="#c" transform="matrix(1,0,0,1,986.1851284266447,96.26645833333339) translate(0 24.08376736111111)"/><use xlink:href="#d" transform="matrix(1,0,0,1,986.1851284266447,96.26645833333339) translate(32.03125 24.08376736111111)"/><use xlink:href="#s" transform="matrix(1,0,0,1,825,133.2664583333334) translate(13.315538194444443 24.08376736111111)"/><use xlink:href="#B" transform="matrix(1,0,0,1,986.1851284266447,133.2664583333334) translate(0 24.08376736111111)"/><path d="M1300 232a12 12 0 0 1 12-12h416a12 12 0 0 1 12 12v164a12 12 0 0 1-12 12h-416a12 12 0 0 1-12-12z" fill="#fff"/><path d="M1300 260h440v38h-440z" fill="#fff"/><path d="M1300 297h440v38h-440z" fill="#fff"/><path d="M1300 334h440v38h-440z" fill="#fff"/><path d="M1300 371h440v25a12 12 0 0 1-12 12h-416a12 12 0 0 1-12-12z" fill="#fff"/><path d="M1301 260h438-438zM1300 232a12 12 0 0 1 12-12h416a12 12 0 0 1 12 12v164a12 12 0 0 1-12 12h-416a12 12 0 0 1-12-12zM1473.25 261v146z" stroke="#000" stroke-width="2" fill="none"/><use xlink:href="#C" transform="matrix(1,0,0,1,1310,220) translate(166.85763888888889 28.08376736111111)"/><use xlink:href="#b" transform="matrix(1,0,0,1,1305,262.5) translate(59.31119791666667 24.08376736111111)"/><use xlink:href="#c" transform="matrix(1,0,0,1,1478.2492269404534,262.5) translate(0 24.08376736111111)"/><use xlink:href="#d" transform="matrix(1,0,0,1,1478.2492269404534,262.5) translate(32.03125 24.08376736111111)"/><use xlink:href="#w" transform="matrix(1,0,0,1,1305,299.5) translate(44.40776909722223 24.08376736111111)"/><use xlink:href="#x" transform="matrix(1,0,0,1,1478.2492269404534,299.5) translate(0 24.08376736111111)"/><use xlink:href="#o" transform="matrix(1,0,0,1,1478.2492269404534,299.5) translate(115.98307291666666 24.08376736111111)"/><use xlink:href="#i" transform="matrix(1,0,0,1,1478.2492269404534,299.5) translate(177.75607638888889 24.08376736111111)"/><use xlink:href="#D" transform="matrix(1,0,0,1,1305,336.5) translate(1.384765625 24.08376736111111)"/><use xlink:href="#c" transform="matrix(1,0,0,1,1478.2492269404534,336.5) translate(0 24.08376736111111)"/><use xlink:href="#n" transform="matrix(1,0,0,1,1478.2492269404534,336.5) translate(32.03125 24.08376736111111)"/><use xlink:href="#o" transform="matrix(1,0,0,1,1478.2492269404534,336.5) translate(74.91319444444444 24.08376736111111)"/><use xlink:href="#i" transform="matrix(1,0,0,1,1478.2492269404534,336.5) translate(136.68619791666669 24.08376736111111)"/><use xlink:href="#E" transform="matrix(1,0,0,1,1305,373.5) translate(36.98046875 24.08376736111111)"/><use xlink:href="#c" transform="matrix(1,0,0,1,1478.2492269404534,373.5) translate(0 24.08376736111111)"/><use xlink:href="#n" transform="matrix(1,0,0,1,1478.2492269404534,373.5) translate(32.03125 24.08376736111111)"/><use xlink:href="#o" transform="matrix(1,0,0,1,1478.2492269404534,373.5) translate(74.91319444444444 24.08376736111111)"/><use xlink:href="#i" transform="matrix(1,0,0,1,1478.2492269404534,373.5) translate(136.68619791666669 24.08376736111111)"/><path d="M800 212a12 12 0 0 1 12-12h336a12 12 0 0 1 12 12v90a12 12 0 0 1-12 12H812a12 12 0 0 1-12-12z" fill="#fff"/><path d="M800 240h360v38H800z" fill="#fff"/><path d="M800 277h360v25a12 12 0 0 1-12 12H812a12 12 0 0 1-12-12z" fill="#fff"/><path d="M801 240h358-358zM800 212a12 12 0 0 1 12-12h336a12 12 0 0 1 12 12v90a12 12 0 0 1-12 12H812a12 12 0 0 1-12-12zM947.23 241v72z" stroke="#000" stroke-width="2" fill="none"/><use xlink:href="#F" transform="matrix(1,0,0,1,810,200) translate(87.25260416666667 28.08376736111111)"/><use xlink:href="#b" transform="matrix(1,0,0,1,805,242.5) translate(46.31119791666667 24.08376736111111)"/><use xlink:href="#c" transform="matrix(1,0,0,1,952.2288630286384,242.5) translate(0 24.08376736111111)"/><use xlink:href="#d" transform="matrix(1,0,0,1,952.2288630286384,242.5) translate(32.03125 24.08376736111111)"/><use xlink:href="#s" transform="matrix(1,0,0,1,805,279.5) translate(6.315538194444443 24.08376736111111)"/><use xlink:href="#B" transform="matrix(1,0,0,1,952.2288630286384,279.5) translate(0 24.08376736111111)"/><path d="M1279 352.5h-43a6 6 0 0 1-6-6v-82a6 6 0 0 0-6-6h-43.6M1299 352.5h-20m0-10v20M1161.22 258.5h20m-20 10l20-10m-20-10l20 10" stroke="#3a414a" fill="none"/><path d="M220 81a12 12 0 0 1 12-12h496a12 12 0 0 1 12 12v164a12 12 0 0 1-12 12H232a12 12 0 0 1-12-12z" fill="#fff"/><path d="M220 109h520v38H220z" fill="#fff"/><path d="M220 146h520v38H220z" fill="#fff"/><path d="M220 183h520v38H220z" fill="#fff"/><path d="M220 220h520v25a12 12 0 0 1-12 12H232a12 12 0 0 1-12-12z" fill="#fff"/><path d="M221 109h518-518zM220 81a12 12 0 0 1 12-12h496a12 12 0 0 1 12 12v164a12 12 0 0 1-12 12H232a12 12 0 0 1-12-12zM408.9 110v146z" stroke="#000" stroke-width="2" fill="none"/><use xlink:href="#G" transform="matrix(1,0,0,1,230,69) translate(209.326171875 28.08376736111111)"/><use xlink:href="#b" transform="matrix(1,0,0,1,225,111.5) translate(66.81119791666667 24.08376736111111)"/><use xlink:href="#c" transform="matrix(1,0,0,1,413.8999491758973,111.5) translate(0 24.08376736111111)"/><use xlink:href="#d" transform="matrix(1,0,0,1,413.8999491758973,111.5) translate(32.03125 24.08376736111111)"/><use xlink:href="#H" transform="matrix(1,0,0,1,225,148.5) translate(67.60872395833334 24.08376736111111)"/><use xlink:href="#I" transform="matrix(1,0,0,1,413.8999491758973,148.5) translate(0 24.08376736111111)"/><use xlink:href="#g" transform="matrix(1,0,0,1,413.8999491758973,148.5) translate(82.92100694444444 24.08376736111111)"/><use xlink:href="#h" transform="matrix(1,0,0,1,413.8999491758973,148.5) translate(183.40928819444446 24.08376736111111)"/><use xlink:href="#i" transform="matrix(1,0,0,1,413.8999491758973,148.5) translate(237.07682291666669 24.08376736111111)"/><use xlink:href="#J" transform="matrix(1,0,0,1,225,185.5) translate(28.589626736111114 24.08376736111111)"/><use xlink:href="#f" transform="matrix(1,0,0,1,413.8999491758973,185.5) translate(0 24.08376736111111)"/><use xlink:href="#o" transform="matrix(1,0,0,1,413.8999491758973,185.5) translate(129.52473958333334 24.08376736111111)"/><use xlink:href="#i" transform="matrix(1,0,0,1,413.8999491758973,185.5) translate(191.29774305555557 24.08376736111111)"/><use xlink:href="#K" transform="matrix(1,0,0,1,225,222.5) translate(3.844618055555557 24.08376736111111)"/><use xlink:href="#c" transform="matrix(1,0,0,1,413.8999491758973,222.5) translate(0 24.08376736111111)"/><use xlink:href="#n" transform="matrix(1,0,0,1,413.8999491758973,222.5) translate(32.03125 24.08376736111111)"/><use xlink:href="#o" transform="matrix(1,0,0,1,413.8999491758973,222.5) translate(74.91319444444444 24.08376736111111)"/><use xlink:href="#i" transform="matrix(1,0,0,1,413.8999491758973,222.5) translate(136.68619791666669 24.08376736111111)"/><path d="M1279 112.27h-138.6M1299 112.27h-20m0-10v20M1121.22 112.27h20m-20 10l20-10m-20-10l20 10M1279 38.27h-43a6 6 0 0 1-6-6V-124.5a6 6 0 0 0-6-6h-43.6M1299 38.27h-20m0-10v20M1161.22-130.5h20m-20 10l20-10m-20-10l20 10" stroke="#3a414a" fill="none"/><path d="M1279-93.5h-43a6 6 0 0 1-6-6v-25a6 6 0 0 0-6-6h-43.6M1299-93.5h-20m0-10v20M1161.22-130.5h20m-20 10l20-10m-20-10l20 10M1279 149.27h-14a6 6 0 0 0-6 6V272.5a6 6 0 0 0 6 6h14.6M1299 149.27h-20m0-10v20M1298.78 278.5h-20m20-10l-20 10m20 10l-20-10M1279 389.5H776a6 6 0 0 1-6-6v-250a6 6 0 0 0-6-6h-3.6M1299 389.5h-20m0-10v20M741.22 127.5h20m-20 10l20-10m-20-10l20 10" stroke="#3a414a" fill="none"/><path d="M-380-28a12 12 0 0 1 12-12h476a12 12 0 0 1 12 12V99a12 12 0 0 1-12 12h-476a12 12 0 0 1-12-12z" fill="#fff"/><path d="M-380 0h500v38h-500z" fill="#fff"/><path d="M-380 37h500v38h-500z" fill="#fff"/><path d="M-380 74h500v25a12 12 0 0 1-12 12h-476a12 12 0 0 1-12-12z" fill="#fff"/><path d="M-379 0h498-498zM-380-28a12 12 0 0 1 12-12h476a12 12 0 0 1 12 12V99a12 12 0 0 1-12 12h-476a12 12 0 0 1-12-12zM-160.53 1v109z" stroke="#000" stroke-width="2" fill="none"/><use xlink:href="#L" transform="matrix(1,0,0,1,-370,-40) translate(158.69032118055554 28.08376736111111)"/><use xlink:href="#b" transform="matrix(1,0,0,1,-375,2.5) translate(82.31119791666667 24.08376736111111)"/><use xlink:href="#c" transform="matrix(1,0,0,1,-155.52803267854176,2.5) translate(0 24.08376736111111)"/><use xlink:href="#d" transform="matrix(1,0,0,1,-155.52803267854176,2.5) translate(32.03125 24.08376736111111)"/><use xlink:href="#M" transform="matrix(1,0,0,1,-375,39.5) translate(0.5403645833333428 24.08376736111111)"/><use xlink:href="#f" transform="matrix(1,0,0,1,-155.52803267854176,39.5) translate(0 24.08376736111111)"/><use xlink:href="#o" transform="matrix(1,0,0,1,-155.52803267854176,39.5) translate(129.52473958333334 24.08376736111111)"/><use xlink:href="#i" transform="matrix(1,0,0,1,-155.52803267854176,39.5) translate(191.29774305555557 24.08376736111111)"/><g><use xlink:href="#N" transform="matrix(1,0,0,1,-375,76.5) translate(73.88563368055556 24.08376736111111)"/></g><g><use xlink:href="#c" transform="matrix(1,0,0,1,-155.52803267854176,76.5) translate(0 24.08376736111111)"/><use xlink:href="#n" transform="matrix(1,0,0,1,-155.52803267854176,76.5) translate(32.03125 24.08376736111111)"/><use xlink:href="#o" transform="matrix(1,0,0,1,-155.52803267854176,76.5) translate(74.91319444444444 24.08376736111111)"/><use xlink:href="#i" transform="matrix(1,0,0,1,-155.52803267854176,76.5) translate(136.68619791666669 24.08376736111111)"/></g><path d="M199 238.5h-23a6 6 0 0 1-6-6v-208a6 6 0 0 0-6-6h-23.6M219 238.5h-20m0-10v20M121.22 18.5h20m-20 10l20-10m-20-10l20 10" stroke="#3a414a" fill="none"/><path d="M-380 158a12 12 0 0 1 12-12H48a12 12 0 0 1 12 12v127a12 12 0 0 1-12 12h-416a12 12 0 0 1-12-12z" fill="#fff"/><path d="M-380 186H60v38h-440z" fill="#fff"/><path d="M-380 223H60v38h-440z" fill="#fff"/><path d="M-380 260H60v25a12 12 0 0 1-12 12h-416a12 12 0 0 1-12-12z" fill="#fff"/><path d="M-379 186H59h-438zM-380 158a12 12 0 0 1 12-12H48a12 12 0 0 1 12 12v127a12 12 0 0 1-12 12h-416a12 12 0 0 1-12-12zM-265.8 187v109z" stroke="#000" stroke-width="2" fill="none"/><g><use xlink:href="#O" transform="matrix(1,0,0,1,-370,146) translate(180.52408854166666 28.08376736111111)"/></g><g><use xlink:href="#b" transform="matrix(1,0,0,1,-375,188.5) translate(29.81119791666667 24.08376736111111)"/></g><g><use xlink:href="#c" transform="matrix(1,0,0,1,-260.8022416343473,188.5) translate(0 24.08376736111111)"/><use xlink:href="#d" transform="matrix(1,0,0,1,-260.8022416343473,188.5) translate(32.03125 24.08376736111111)"/></g><g><use xlink:href="#P" transform="matrix(1,0,0,1,-375,225.5) translate(2.489149305555557 24.08376736111111)"/></g><g><use xlink:href="#f" transform="matrix(1,0,0,1,-260.8022416343473,225.5) translate(0 24.08376736111111)"/><use xlink:href="#o" transform="matrix(1,0,0,1,-260.8022416343473,225.5) translate(129.52473958333334 24.08376736111111)"/><use xlink:href="#i" transform="matrix(1,0,0,1,-260.8022416343473,225.5) translate(191.29774305555557 24.08376736111111)"/></g><g><use xlink:href="#Q" transform="matrix(1,0,0,1,-375,262.5) translate(15.227864583333336 24.08376736111111)"/></g><g><use xlink:href="#R" transform="matrix(1,0,0,1,-260.8022416343473,262.5) translate(0 24.08376736111111)"/><use xlink:href="#n" transform="matrix(1,0,0,1,-260.8022416343473,262.5) translate(82.6931423611111 24.08376736111111)"/><use xlink:href="#o" transform="matrix(1,0,0,1,-260.8022416343473,262.5) translate(125.57508680555554 24.08376736111111)"/><use xlink:href="#i" transform="matrix(1,0,0,1,-260.8022416343473,262.5) translate(187.34809027777777 24.08376736111111)"/></g><path d="M-401 92.5h-14a6 6 0 0 0-6 6v100a6 6 0 0 0 6 6h14.6M-381 92.5h-20m0-10v20M-381.22 204.5h-20m20-10l-20 10m20 10l-20-10" stroke="#3a414a" fill="none"/><path d="M220 302a12 12 0 0 1 12-12h476a12 12 0 0 1 12 12v127a12 12 0 0 1-12 12H232a12 12 0 0 1-12-12z" fill="#fff"/><path d="M220 330h500v38H220z" fill="#fff"/><path d="M220 367h500v38H220z" fill="#fff"/><path d="M220 404h500v25a12 12 0 0 1-12 12H232a12 12 0 0 1-12-12z" fill="#fff"/><path d="M221 330h498-498zM220 302a12 12 0 0 1 12-12h476a12 12 0 0 1 12 12v127a12 12 0 0 1-12 12H232a12 12 0 0 1-12-12zM347.5 331v109z" stroke="#000" stroke-width="2" fill="none"/><g><use xlink:href="#S" transform="matrix(1,0,0,1,230,290) translate(207.07356770833334 28.08376736111111)"/></g><g><use xlink:href="#b" transform="matrix(1,0,0,1,225,332.5) translate(36.31119791666667 24.08376736111111)"/></g><g><use xlink:href="#R" transform="matrix(1,0,0,1,352.50909503617174,332.5) translate(0 24.08376736111111)"/><use xlink:href="#d" transform="matrix(1,0,0,1,352.50909503617174,332.5) translate(82.6931423611111 24.08376736111111)"/></g><g><use xlink:href="#T" transform="matrix(1,0,0,1,225,369.5) translate(2.3810763888888857 24.08376736111111)"/></g><g><use xlink:href="#t" transform="matrix(1,0,0,1,352.50909503617174,369.5) translate(0 24.08376736111111)"/><use xlink:href="#g" transform="matrix(1,0,0,1,352.50909503617174,369.5) translate(129.56814236111111 24.08376736111111)"/><use xlink:href="#h" transform="matrix(1,0,0,1,352.50909503617174,369.5) translate(230.05642361111111 24.08376736111111)"/><use xlink:href="#i" transform="matrix(1,0,0,1,352.50909503617174,369.5) translate(283.72395833333337 24.08376736111111)"/></g><g><use xlink:href="#U" transform="matrix(1,0,0,1,225,406.5) translate(12.591579861111121 24.08376736111111)"/></g><g><use xlink:href="#c" transform="matrix(1,0,0,1,352.50909503617174,406.5) translate(0 24.08376736111111)"/><use xlink:href="#n" transform="matrix(1,0,0,1,352.50909503617174,406.5) translate(32.03125 24.08376736111111)"/><use xlink:href="#g" transform="matrix(1,0,0,1,352.50909503617174,406.5) translate(74.91319444444444 24.08376736111111)"/><use xlink:href="#h" transform="matrix(1,0,0,1,352.50909503617174,406.5) translate(175.40147569444446 24.08376736111111)"/><use xlink:href="#i" transform="matrix(1,0,0,1,352.50909503617174,406.5) translate(229.06901041666669 24.08376736111111)"/></g><path d="M81 278.76h53a6 6 0 0 1 6 6v57.74a6 6 0 0 0 6 6h53.6M61 278.76h20m0 10v-20M218.78 348.5h-20m20-10l-20 10m20 10l-20-10" stroke="#3a414a" fill="none"/><path d="M-380 344a12 12 0 0 1 12-12h476a12 12 0 0 1 12 12v90a12 12 0 0 1-12 12h-476a12 12 0 0 1-12-12z" fill="#fff"/><path d="M-380 372h500v38h-500z" fill="#fff"/><path d="M-380 409h500v25a12 12 0 0 1-12 12h-476a12 12 0 0 1-12-12z" fill="#fff"/><path d="M-379 372h498-498zM-380 344a12 12 0 0 1 12-12h476a12 12 0 0 1 12 12v90a12 12 0 0 1-12 12h-476a12 12 0 0 1-12-12zM-245.26 373v72z" stroke="#000" stroke-width="2" fill="none"/><g><use xlink:href="#V" transform="matrix(1,0,0,1,-370,332) translate(197.93728298611111 28.08376736111111)"/></g><g><use xlink:href="#b" transform="matrix(1,0,0,1,-375,374.5) translate(39.81119791666667 24.08376736111111)"/></g><g><use xlink:href="#c" transform="matrix(1,0,0,1,-240.26484704679058,374.5) translate(0 24.08376736111111)"/><use xlink:href="#d" transform="matrix(1,0,0,1,-240.26484704679058,374.5) translate(32.03125 24.08376736111111)"/></g><g><use xlink:href="#W" transform="matrix(1,0,0,1,-375,411.5) translate(-1.5299479166666714 24.08376736111111)"/></g><g><use xlink:href="#t" transform="matrix(1,0,0,1,-240.26484704679058,411.5) translate(0 24.08376736111111)"/><use xlink:href="#g" transform="matrix(1,0,0,1,-240.26484704679058,411.5) translate(129.56814236111111 24.08376736111111)"/><use xlink:href="#h" transform="matrix(1,0,0,1,-240.26484704679058,411.5) translate(230.05642361111111 24.08376736111111)"/><use xlink:href="#i" transform="matrix(1,0,0,1,-240.26484704679058,411.5) translate(283.72395833333337 24.08376736111111)"/></g><path d="M199 422.73h-23a6 6 0 0 1-6-6V396.5a6 6 0 0 0-6-6h-23.6M219 422.73h-20m0-10v20M121.22 390.5h20m-20 10l20-10m-20-10l20 10" stroke="#3a414a" fill="none"/><defs><path d="M763 24c-353 0-583-224-583-531v-983h190v968c0 214 149 370 393 370 243 0 391-156 391-370v-968h190v983c0 307-230 531-581 531" id="X"/><path d="M538 24C308 24 148-78 108-271l171-41c32 123 123 178 257 178 156 0 256-77 256-169 0-77-54-128-164-154l-186-44c-203-48-300-148-300-305 0-192 176-326 414-326 230 0 351 112 402 269l-163 42c-31-80-94-158-238-158-133 0-233 69-233 162 0 83 57 129 188 160l169 40c203 48 298 149 298 302 0 196-179 339-441 339" id="Y"/><path d="M628 24c-324 0-524-230-524-574 0-343 198-582 503-582 237 0 487 146 487 559v75H286c9 234 145 362 343 362 132 0 231-58 273-172l174 48C1024-91 857 24 628 24zM287-650h624c-17-190-120-322-304-322-192 0-309 151-320 322" id="Z"/><path d="M158 0v-1118h174v172h12c41-113 157-188 290-188 26 0 70 2 91 3v181c-11-2-60-10-108-10-161 0-279 109-279 260V0H158" id="aa"/><g id="a"><use transform="matrix(0.010850694444444444,0,0,0.010850694444444444,0,0)" xlink:href="#X"/><use transform="matrix(0.010850694444444444,0,0,0.010850694444444444,16.536458333333332,0)" xlink:href="#Y"/><use transform="matrix(0.010850694444444444,0,0,0.010850694444444444,28.266059027777775,0)" xlink:href="#Z"/><use transform="matrix(0.010850694444444444,0,0,0.010850694444444444,41.22178819444444,0)" xlink:href="#aa"/><use transform="matrix(0.010850694444444444,0,0,0.010850694444444444,49.58767361111111,0)" xlink:href="#Y"/></g><path d="M158 418v-1536h174v179h20c37-59 106-193 324-193 279 0 474 222 474 576 0 356-194 580-473 580-213 0-288-135-325-197h-14v591H158zm492-555c209 0 317-186 317-421 0-232-105-413-317-413-206 0-314 166-314 413 0 249 111 421 314 421" id="ab"/><path d="M158 0v-1490h180v865h22l478-493h223L593-638 1096 0H865L456-523 338-412V0H158" id="ac"/><path d="M370-1490V0H180v-1490h190" id="ad"/><path d="M577 24c-279 0-473-224-473-580 0-354 195-576 474-576 218 0 287 134 324 193h14v-551h180V0H922v-173h-20C865-111 790 24 577 24zm27-161c203 0 314-172 314-421 0-247-108-413-314-413-212 0-317 181-317 413 0 235 108 421 317 421" id="ae"/><g id="b"><use transform="matrix(0.010850694444444444,0,0,0.010850694444444444,0,0)" xlink:href="#ab"/><use transform="matrix(0.010850694444444444,0,0,0.010850694444444444,13.606770833333332,0)" xlink:href="#ac"/><use transform="matrix(0.010850694444444444,0,0,0.010850694444444444,25.80295138888889,0)" xlink:href="#ad"/><use transform="matrix(0.010850694444444444,0,0,0.010850694444444444,31.77083333333333,0)" xlink:href="#ae"/></g><path d="M158 0v-1118h180V0H158zm91-1301c-68 0-125-53-125-119s57-119 125-119c69 0 126 53 126 119s-57 119-126 119" id="af"/><path d="M338-670V0H158v-1118h173l1 207c72-158 192-221 342-221 226 0 378 139 378 422V0H872v-695c0-172-96-275-252-275-161 0-282 109-282 300" id="ag"/><path d="M598-1118v154H368v674c0 100 37 144 132 144 23 0 62-6 92-12L629-6c-37 13-88 20-134 20-193 0-307-107-307-290v-688H20v-154h168v-266h180v266h230" id="ah"/><g id="c"><use transform="matrix(0.010850694444444444,0,0,0.010850694444444444,0,0)" xlink:href="#af"/><use transform="matrix(0.010850694444444444,0,0,0.010850694444444444,5.381944444444445,0)" xlink:href="#ag"/><use transform="matrix(0.010850694444444444,0,0,0.010850694444444444,18.51128472222222,0)" xlink:href="#ah"/></g><path d="M218-607c0-325 108-727 258-974h175c-155 315-250 682-250 974 0 265 78 531 250 886H476C306-10 218-315 218-607" id="ai"/><path d="M96 279C273-86 346-350 346-607c0-292-95-659-250-974h175c150 246 258 650 258 974 0 297-91 602-258 886H96" id="aj"/><g id="d"><use transform="matrix(0.010850694444444444,0,0,0.010850694444444444,0,0)" xlink:href="#ai"/><use transform="matrix(0.010850694444444444,0,0,0.010850694444444444,8.10546875,0)" xlink:href="#ab"/><use transform="matrix(0.010850694444444444,0,0,0.010850694444444444,21.712239583333332,0)" xlink:href="#ac"/><use transform="matrix(0.010850694444444444,0,0,0.010850694444444444,33.908420138888886,0)" xlink:href="#aj"/></g><path d="M537 14c-226 0-379-139-379-422v-710h180v695c0 172 97 275 253 275 160 0 281-109 281-300v-670h181V0H879v-209C806-46 684 14 537 14" id="ak"/><path d="M471 26C259 26 90-98 90-318c0-256 228-303 435-329 202-27 287-16 287-108 0-139-79-219-234-219-161 0-248 86-283 164l-173-57c86-203 278-265 451-265 150 0 419 46 419 395V0H815v-152h-12C765-73 660 26 471 26zm31-159c199 0 310-134 310-271v-155c-30 35-226 55-295 64-131 17-246 59-246 186 0 116 97 176 231 176" id="al"/><path d="M158 0v-1118h175l1 205c55-151 181-225 313-225 147 0 245 90 285 228 53-141 190-228 352-228 194 0 352 125 352 384V0h-181v-749c0-161-105-225-225-225-151 0-243 103-243 244V0H807v-767c0-124-93-207-219-207-131 0-250 92-250 270V0H158" id="am"/><g id="e"><use transform="matrix(0.010850694444444444,0,0,0.010850694444444444,0,0)" xlink:href="#ak"/><use transform="matrix(0.010850694444444444,0,0,0.010850694444444444,13.140190972222221,0)" xlink:href="#Y"/><use transform="matrix(0.010850694444444444,0,0,0.010850694444444444,24.869791666666664,0)" xlink:href="#Z"/><use transform="matrix(0.010850694444444444,0,0,0.010850694444444444,37.82552083333333,0)" xlink:href="#aa"/><use transform="matrix(0.010850694444444444,0,0,0.010850694444444444,46.53862847222221,0)" xlink:href="#ag"/><use transform="matrix(0.010850694444444444,0,0,0.010850694444444444,59.667968749999986,0)" xlink:href="#al"/><use transform="matrix(0.010850694444444444,0,0,0.010850694444444444,72.1462673611111,0)" xlink:href="#am"/><use transform="matrix(0.010850694444444444,0,0,0.010850694444444444,91.61241319444441,0)" xlink:href="#Z"/></g><path d="M481 0L54-1118h197c107 314 236 620 325 951 87-331 217-637 324-951h197L670 0H481" id="an"/><path d="M613 24c-304 0-509-231-509-576 0-350 205-580 509-580 216 0 392 114 453 309l-173 49c-33-115-133-197-280-197-223 0-326 196-326 419 0 220 103 415 326 415 150 0 252-85 285-206l172 49C1010-95 832 24 613 24" id="ao"/><path d="M338-670V0H158v-1490h180v566c73-149 190-208 336-208 226 0 379 139 379 422V0H872v-695c0-172-96-275-252-275-161 0-282 109-282 300" id="ap"/><path d="M626 20c-262 0-458-168-468-396h184c12 133 134 229 284 229 180 0 311-137 311-326 0-192-136-335-323-335-92 0-196 33-255 78l-178-22 88-738h784v167H429l-51 435h8c61-51 160-87 263-87 273 0 474 211 474 499 0 286-210 496-497 496" id="aq"/><path d="M646 20c-332 0-524-278-524-764 0-483 194-766 524-766s524 283 524 766c0 485-191 764-524 764zm0-166c218 0 341-220 341-598 0-380-123-601-341-601s-341 222-341 601c0 378 123 598 341 598" id="ar"/><g id="f"><use transform="matrix(0.010850694444444444,0,0,0.010850694444444444,0,0)" xlink:href="#an"/><use transform="matrix(0.010850694444444444,0,0,0.010850694444444444,12.38064236111111,0)" xlink:href="#al"/><use transform="matrix(0.010850694444444444,0,0,0.010850694444444444,24.85894097222222,0)" xlink:href="#aa"/><use transform="matrix(0.010850694444444444,0,0,0.010850694444444444,32.85590277777778,0)" xlink:href="#ao"/><use transform="matrix(0.010850694444444444,0,0,0.010850694444444444,45.55121527777778,0)" xlink:href="#ap"/><use transform="matrix(0.010850694444444444,0,0,0.010850694444444444,58.69140625,0)" xlink:href="#al"/><use transform="matrix(0.010850694444444444,0,0,0.010850694444444444,71.16970486111111,0)" xlink:href="#aa"/><use transform="matrix(0.010850694444444444,0,0,0.010850694444444444,79.53559027777779,0)" xlink:href="#ai"/><use transform="matrix(0.010850694444444444,0,0,0.010850694444444444,87.64105902777779,0)" xlink:href="#aq"/><use transform="matrix(0.010850694444444444,0,0,0.010850694444444444,101.15017361111111,0)" xlink:href="#ar"/><use transform="matrix(0.010850694444444444,0,0,0.010850694444444444,115.16927083333334,0)" xlink:href="#aj"/></g><path d="M226 279v-1860h398v153H398V126h226v153H226" id="as"/><path d="M180 0v-1490h224l606 953c40 63 108 177 176 312-27-437-7-821-13-1265h190V0h-226C860-448 622-778 356-1262c27 476 11 792 15 1262H180" id="at"/><path d="M784 20c-382 0-662-292-662-764 0-473 280-766 662-766s660 293 660 766c0 282-99 499-260 629l192 255h-198L1049-33C969 2 880 20 784 20zm-62-486h198l156 205c112-98 183-261 183-483 0-383-209-590-475-590-268 0-477 208-477 590 0 380 209 588 477 588 54 0 106-9 154-25" id="au"/><path d="M180 0v-1490h908v168H370v486h669v168H370v500h727V0H180" id="av"/><g id="g"><use transform="matrix(0.010850694444444444,0,0,0.010850694444444444,0,0)" xlink:href="#as"/><use transform="matrix(0.010850694444444444,0,0,0.010850694444444444,8.10546875,0)" xlink:href="#X"/><use transform="matrix(0.010850694444444444,0,0,0.010850694444444444,24.641927083333332,0)" xlink:href="#at"/><use transform="matrix(0.010850694444444444,0,0,0.010850694444444444,41.384548611111114,0)" xlink:href="#ad"/><use transform="matrix(0.010850694444444444,0,0,0.010850694444444444,47.35243055555556,0)" xlink:href="#au"/><use transform="matrix(0.010850694444444444,0,0,0.010850694444444444,64.34461805555556,0)" xlink:href="#X"/><use transform="matrix(0.010850694444444444,0,0,0.010850694444444444,80.88107638888889,0)" xlink:href="#av"/></g><path d="M784 20c-382 0-662-292-662-764 0-473 280-766 662-766s660 293 660 766c0 472-278 764-660 764zm0-176c266 0 475-207 475-588 0-383-209-590-475-590-268 0-477 208-477 590 0 380 209 588 477 588" id="aw"/><path d="M98-1322v-168h1126v168H757V0H567v-1322H98" id="ax"/><g id="h"><use transform="matrix(0.010850694444444444,0,0,0.010850694444444444,0,0)" xlink:href="#at"/><use transform="matrix(0.010850694444444444,0,0,0.010850694444444444,16.74262152777778,0)" xlink:href="#aw"/><use transform="matrix(0.010850694444444444,0,0,0.010850694444444444,33.07291666666667,0)" xlink:href="#ax"/></g><path d="M180 0v-1490h190v1322h690V0H180" id="ay"/><path d="M123 279V126h226v-1554H123v-153h398V279H123" id="az"/><g id="i"><use transform="matrix(0.010850694444444444,0,0,0.010850694444444444,0,0)" xlink:href="#at"/><use transform="matrix(0.010850694444444444,0,0,0.010850694444444444,16.74262152777778,0)" xlink:href="#X"/><use transform="matrix(0.010850694444444444,0,0,0.010850694444444444,33.279079861111114,0)" xlink:href="#ay"/><use transform="matrix(0.010850694444444444,0,0,0.010850694444444444,45.84418402777778,0)" xlink:href="#ay"/><use transform="matrix(0.010850694444444444,0,0,0.010850694444444444,58.40928819444444,0)" xlink:href="#az"/></g><path d="M338-1490V0H158v-1490h180" id="aA"/><g id="j"><use transform="matrix(0.010850694444444444,0,0,0.010850694444444444,0,0)" xlink:href="#ak"/><use transform="matrix(0.010850694444444444,0,0,0.010850694444444444,13.140190972222221,0)" xlink:href="#Y"/><use transform="matrix(0.010850694444444444,0,0,0.010850694444444444,24.869791666666664,0)" xlink:href="#Z"/><use transform="matrix(0.010850694444444444,0,0,0.010850694444444444,37.82552083333333,0)" xlink:href="#aa"/><use transform="matrix(0.010850694444444444,0,0,0.010850694444444444,46.53862847222221,0)" xlink:href="#am"/><use transform="matrix(0.010850694444444444,0,0,0.010850694444444444,66.00477430555554,0)" xlink:href="#al"/><use transform="matrix(0.010850694444444444,0,0,0.010850694444444444,78.48307291666666,0)" xlink:href="#af"/><use transform="matrix(0.010850694444444444,0,0,0.010850694444444444,83.8650173611111,0)" xlink:href="#aA"/></g><path d="M783 20c-382 0-661-292-661-764 0-473 279-766 661-766 302 0 548 182 601 489h-190c-42-204-217-313-411-313-268 0-476 208-476 590 0 381 209 588 476 588 195 0 369-110 411-313h190c-52 303-296 489-601 489" id="aB"/><path d="M611 442c-248 0-391-105-460-228l146-94c47 65 117 165 314 165 178 0 307-82 307-266v-224h-17C863-141 792-18 576-18c-268 0-472-195-472-546 0-346 197-568 476-568 216 0 288 133 326 193h17v-179h175V29c0 289-215 413-487 413zm-5-620c203 0 314-146 314-390 0-237-108-403-314-403-213 0-319 180-319 403 0 230 109 390 319 390" id="aC"/><g id="k"><use transform="matrix(0.010850694444444444,0,0,0.010850694444444444,0,0)" xlink:href="#aA"/><use transform="matrix(0.010850694444444444,0,0,0.010850694444444444,5.381944444444445,0)" xlink:href="#al"/><use transform="matrix(0.010850694444444444,0,0,0.010850694444444444,17.860243055555557,0)" xlink:href="#ah"/><use transform="matrix(0.010850694444444444,0,0,0.010850694444444444,24.91319444444445,0)" xlink:href="#Z"/><use transform="matrix(0.010850694444444444,0,0,0.010850694444444444,37.868923611111114,0)" xlink:href="#Y"/><use transform="matrix(0.010850694444444444,0,0,0.010850694444444444,49.59852430555556,0)" xlink:href="#ah"/><use transform="matrix(0.010850694444444444,0,0,0.010850694444444444,56.86848958333333,0)" xlink:href="#aB"/><use transform="matrix(0.010850694444444444,0,0,0.010850694444444444,73.10112847222223,0)" xlink:href="#ap"/><use transform="matrix(0.010850694444444444,0,0,0.010850694444444444,86.24131944444446,0)" xlink:href="#al"/><use transform="matrix(0.010850694444444444,0,0,0.010850694444444444,98.71961805555557,0)" xlink:href="#ag"/><use transform="matrix(0.010850694444444444,0,0,0.010850694444444444,111.84895833333334,0)" xlink:href="#aC"/><use transform="matrix(0.010850694444444444,0,0,0.010850694444444444,125.47743055555557,0)" xlink:href="#Z"/></g><g id="l"><use transform="matrix(0.010850694444444444,0,0,0.010850694444444444,0,0)" xlink:href="#ah"/><use transform="matrix(0.010850694444444444,0,0,0.010850694444444444,7.269965277777778,0)" xlink:href="#af"/><use transform="matrix(0.010850694444444444,0,0,0.010850694444444444,12.651909722222221,0)" xlink:href="#am"/><use transform="matrix(0.010850694444444444,0,0,0.010850694444444444,32.11805555555556,0)" xlink:href="#Z"/><use transform="matrix(0.010850694444444444,0,0,0.010850694444444444,45.07378472222222,0)" xlink:href="#Y"/><use transform="matrix(0.010850694444444444,0,0,0.010850694444444444,56.803385416666664,0)" xlink:href="#ah"/><use transform="matrix(0.010850694444444444,0,0,0.010850694444444444,64.18185763888889,0)" xlink:href="#al"/><use transform="matrix(0.010850694444444444,0,0,0.010850694444444444,76.66015625,0)" xlink:href="#am"/><use transform="matrix(0.010850694444444444,0,0,0.010850694444444444,96.12630208333333,0)" xlink:href="#ab"/></g><path d="M678-1118v154H420V0H240v-964H20v-154h220v-149c0-194 155-293 318-293 85 0 141 18 168 30l-50 154c-19-6-47-17-97-17-111 0-159 58-159 166v109h258" id="aD"/><path d="M657 26c-323 0-524-166-541-416h195c15 169 171 246 346 246 202 0 356-106 356-265 5-203-294-238-475-293-239-73-380-191-380-389 0-252 224-419 512-419 294 0 499 171 508 396H992c-17-145-151-228-328-228-193 0-321 102-321 242 0 156 175 211 284 241l149 41c160 44 422 134 422 412 0 244-197 432-541 432" id="aE"/><g id="m"><use transform="matrix(0.010850694444444444,0,0,0.010850694444444444,0,0)" xlink:href="#aD"/><use transform="matrix(0.010850694444444444,0,0,0.010850694444444444,8.22482638888889,0)" xlink:href="#ac"/><use transform="matrix(0.010850694444444444,0,0,0.010850694444444444,20.421006944444443,0)" xlink:href="#aB"/><use transform="matrix(0.010850694444444444,0,0,0.010850694444444444,36.65364583333333,0)" xlink:href="#ak"/><use transform="matrix(0.010850694444444444,0,0,0.010850694444444444,49.79383680555556,0)" xlink:href="#aa"/><use transform="matrix(0.010850694444444444,0,0,0.010850694444444444,58.506944444444436,0)" xlink:href="#aa"/><use transform="matrix(0.010850694444444444,0,0,0.010850694444444444,66.50390624999999,0)" xlink:href="#Z"/><use transform="matrix(0.010850694444444444,0,0,0.010850694444444444,79.45963541666666,0)" xlink:href="#ag"/><use transform="matrix(0.010850694444444444,0,0,0.010850694444444444,92.58897569444441,0)" xlink:href="#ah"/><use transform="matrix(0.010850694444444444,0,0,0.010850694444444444,99.8589409722222,0)" xlink:href="#aE"/><use transform="matrix(0.010850694444444444,0,0,0.010850694444444444,114.1167534722222,0)" xlink:href="#ah"/><use transform="matrix(0.010850694444444444,0,0,0.010850694444444444,121.49522569444441,0)" xlink:href="#al"/><use transform="matrix(0.010850694444444444,0,0,0.010850694444444444,133.97352430555551,0)" xlink:href="#ah"/><use transform="matrix(0.010850694444444444,0,0,0.010850694444444444,141.2434895833333,0)" xlink:href="#ak"/><use transform="matrix(0.010850694444444444,0,0,0.010850694444444444,154.38368055555551,0)" xlink:href="#Y"/></g><g id="n"><use transform="matrix(0.010850694444444444,0,0,0.010850694444444444,0,0)" xlink:href="#ai"/><use transform="matrix(0.010850694444444444,0,0,0.010850694444444444,8.10546875,0)" xlink:href="#aD"/><use transform="matrix(0.010850694444444444,0,0,0.010850694444444444,16.33029513888889,0)" xlink:href="#ac"/><use transform="matrix(0.010850694444444444,0,0,0.010850694444444444,28.526475694444443,0)" xlink:href="#aj"/></g><g id="o"><use transform="matrix(0.010850694444444444,0,0,0.010850694444444444,0,0)" xlink:href="#as"/><use transform="matrix(0.010850694444444444,0,0,0.010850694444444444,8.10546875,0)" xlink:href="#at"/><use transform="matrix(0.010850694444444444,0,0,0.010850694444444444,24.84809027777778,0)" xlink:href="#aw"/><use transform="matrix(0.010850694444444444,0,0,0.010850694444444444,41.17838541666667,0)" xlink:href="#ax"/></g><path d="M180 0v-1490h270l367 940c28 72 75 218 110 339 35-117 81-264 110-339l362-940h271V0h-187c2-448-5-837 7-1287-157 497-311 829-483 1287H842C666-458 514-784 354-1284c12 438 5 843 7 1284H180" id="aF"/><path d="M613 24c-304 0-509-231-509-576 0-350 205-580 509-580 305 0 511 230 511 580 0 345-206 576-511 576zm0-161c226 0 329-195 329-415 0-222-103-419-329-419-223 0-326 196-326 419 0 220 103 415 326 415" id="aG"/><g id="p"><use transform="matrix(0.010850694444444444,0,0,0.010850694444444444,0,0)" xlink:href="#aF"/><use transform="matrix(0.010850694444444444,0,0,0.010850694444444444,20.07378472222222,0)" xlink:href="#aG"/><use transform="matrix(0.010850694444444444,0,0,0.010850694444444444,33.3984375,0)" xlink:href="#ae"/><use transform="matrix(0.010850694444444444,0,0,0.010850694444444444,47.00520833333333,0)" xlink:href="#Z"/><use transform="matrix(0.010850694444444444,0,0,0.010850694444444444,59.960937499999986,0)" xlink:href="#aa"/><use transform="matrix(0.010850694444444444,0,0,0.010850694444444444,68.32682291666666,0)" xlink:href="#al"/><use transform="matrix(0.010850694444444444,0,0,0.010850694444444444,80.80512152777777,0)" xlink:href="#ah"/><use transform="matrix(0.010850694444444444,0,0,0.010850694444444444,87.85807291666666,0)" xlink:href="#aG"/><use transform="matrix(0.010850694444444444,0,0,0.010850694444444444,101.18272569444441,0)" xlink:href="#aa"/><use transform="matrix(0.010850694444444444,0,0,0.010850694444444444,109.54861111111111,0)" xlink:href="#Y"/></g><g id="q"><use transform="matrix(0.010850694444444444,0,0,0.010850694444444444,0,0)" xlink:href="#aD"/><use transform="matrix(0.010850694444444444,0,0,0.010850694444444444,8.22482638888889,0)" xlink:href="#ac"/><use transform="matrix(0.010850694444444444,0,0,0.010850694444444444,20.421006944444443,0)" xlink:href="#X"/><use transform="matrix(0.010850694444444444,0,0,0.010850694444444444,36.95746527777777,0)" xlink:href="#Y"/><use transform="matrix(0.010850694444444444,0,0,0.010850694444444444,48.68706597222221,0)" xlink:href="#Z"/><use transform="matrix(0.010850694444444444,0,0,0.010850694444444444,61.64279513888888,0)" xlink:href="#aa"/><use transform="matrix(0.010850694444444444,0,0,0.010850694444444444,70.35590277777777,0)" xlink:href="#ad"/><use transform="matrix(0.010850694444444444,0,0,0.010850694444444444,76.32378472222221,0)" xlink:href="#ae"/></g><g id="r"><use transform="matrix(0.010850694444444444,0,0,0.010850694444444444,0,0)" xlink:href="#X"/><use transform="matrix(0.010850694444444444,0,0,0.010850694444444444,16.536458333333332,0)" xlink:href="#Y"/><use transform="matrix(0.010850694444444444,0,0,0.010850694444444444,28.266059027777775,0)" xlink:href="#Z"/><use transform="matrix(0.010850694444444444,0,0,0.010850694444444444,41.22178819444444,0)" xlink:href="#aa"/><use transform="matrix(0.010850694444444444,0,0,0.010850694444444444,49.58767361111111,0)" xlink:href="#aE"/><use transform="matrix(0.010850694444444444,0,0,0.010850694444444444,63.84548611111111,0)" xlink:href="#ah"/><use transform="matrix(0.010850694444444444,0,0,0.010850694444444444,71.22395833333333,0)" xlink:href="#al"/><use transform="matrix(0.010850694444444444,0,0,0.010850694444444444,83.70225694444444,0)" xlink:href="#ah"/><use transform="matrix(0.010850694444444444,0,0,0.010850694444444444,90.97222222222221,0)" xlink:href="#ak"/><use transform="matrix(0.010850694444444444,0,0,0.010850694444444444,104.11241319444441,0)" xlink:href="#Y"/><use transform="matrix(0.010850694444444444,0,0,0.010850694444444444,115.84201388888887,0)" xlink:href="#Z"/><use transform="matrix(0.010850694444444444,0,0,0.010850694444444444,128.79774305555554,0)" xlink:href="#Y"/></g><g id="s"><use transform="matrix(0.010850694444444444,0,0,0.010850694444444444,0,0)" xlink:href="#Y"/><use transform="matrix(0.010850694444444444,0,0,0.010850694444444444,11.729600694444445,0)" xlink:href="#ah"/><use transform="matrix(0.010850694444444444,0,0,0.010850694444444444,19.108072916666668,0)" xlink:href="#al"/><use transform="matrix(0.010850694444444444,0,0,0.010850694444444444,31.586371527777775,0)" xlink:href="#ah"/><use transform="matrix(0.010850694444444444,0,0,0.010850694444444444,38.85633680555556,0)" xlink:href="#ak"/><use transform="matrix(0.010850694444444444,0,0,0.010850694444444444,51.99652777777778,0)" xlink:href="#Y"/><use transform="matrix(0.010850694444444444,0,0,0.010850694444444444,63.72612847222222,0)" xlink:href="#at"/><use transform="matrix(0.010850694444444444,0,0,0.010850694444444444,80.46875,0)" xlink:href="#al"/><use transform="matrix(0.010850694444444444,0,0,0.010850694444444444,92.94704861111111,0)" xlink:href="#am"/><use transform="matrix(0.010850694444444444,0,0,0.010850694444444444,112.41319444444444,0)" xlink:href="#Z"/></g><path d="M154 0v-137l495-537c165-179 249-281 249-418 0-156-121-253-280-253-170 0-278 110-278 278H158c0-264 200-443 465-443 266 0 455 183 455 416 0 161-73 288-336 568L416-179v12h687V0H154" id="aH"/><g id="t"><use transform="matrix(0.010850694444444444,0,0,0.010850694444444444,0,0)" xlink:href="#an"/><use transform="matrix(0.010850694444444444,0,0,0.010850694444444444,12.38064236111111,0)" xlink:href="#al"/><use transform="matrix(0.010850694444444444,0,0,0.010850694444444444,24.85894097222222,0)" xlink:href="#aa"/><use transform="matrix(0.010850694444444444,0,0,0.010850694444444444,32.85590277777778,0)" xlink:href="#ao"/><use transform="matrix(0.010850694444444444,0,0,0.010850694444444444,45.55121527777778,0)" xlink:href="#ap"/><use transform="matrix(0.010850694444444444,0,0,0.010850694444444444,58.69140625,0)" xlink:href="#al"/><use transform="matrix(0.010850694444444444,0,0,0.010850694444444444,71.16970486111111,0)" xlink:href="#aa"/><use transform="matrix(0.010850694444444444,0,0,0.010850694444444444,79.53559027777779,0)" xlink:href="#ai"/><use transform="matrix(0.010850694444444444,0,0,0.010850694444444444,87.64105902777779,0)" xlink:href="#aH"/><use transform="matrix(0.010850694444444444,0,0,0.010850694444444444,101.1935763888889,0)" xlink:href="#ar"/><use transform="matrix(0.010850694444444444,0,0,0.010850694444444444,115.2126736111111,0)" xlink:href="#aj"/></g><path d="M180 0v-1490h510c348 0 508 194 508 460 0 198-88 351-276 417L1256 0h-220L726-579c-117 2-238 0-356 1V0H180zm190-747h312c235 0 327-108 327-283 0-177-92-293-329-293H370v576" id="aI"/><g id="u"><use transform="matrix(0.010850694444444444,0,0,0.010850694444444444,0,0)" xlink:href="#aI"/><use transform="matrix(0.010850694444444444,0,0,0.010850694444444444,13.975694444444445,0)" xlink:href="#Z"/><use transform="matrix(0.010850694444444444,0,0,0.010850694444444444,26.931423611111104,0)" xlink:href="#ab"/><use transform="matrix(0.010850694444444444,0,0,0.010850694444444444,40.53819444444444,0)" xlink:href="#aG"/><use transform="matrix(0.010850694444444444,0,0,0.010850694444444444,53.86284722222222,0)" xlink:href="#aa"/><use transform="matrix(0.010850694444444444,0,0,0.010850694444444444,62.57595486111111,0)" xlink:href="#ah"/><use transform="matrix(0.010850694444444444,0,0,0.010850694444444444,69.62890625,0)" xlink:href="#Y"/></g><path d="M409 0L70-1118h191c89 329 165 560 243 925 75-353 154-601 240-925h192c85 325 161 564 235 922 77-354 157-598 244-922h191L1267 0h-179c-86-307-176-590-250-913C763-588 675-308 588 0H409" id="aJ"/><g id="v"><use transform="matrix(0.010850694444444444,0,0,0.010850694444444444,0,0)" xlink:href="#aD"/><use transform="matrix(0.010850694444444444,0,0,0.010850694444444444,8.22482638888889,0)" xlink:href="#ac"/><use transform="matrix(0.010850694444444444,0,0,0.010850694444444444,20.421006944444443,0)" xlink:href="#X"/><use transform="matrix(0.010850694444444444,0,0,0.010850694444444444,36.95746527777777,0)" xlink:href="#Y"/><use transform="matrix(0.010850694444444444,0,0,0.010850694444444444,48.68706597222221,0)" xlink:href="#Z"/><use transform="matrix(0.010850694444444444,0,0,0.010850694444444444,61.64279513888888,0)" xlink:href="#aa"/><use transform="matrix(0.010850694444444444,0,0,0.010850694444444444,70.00868055555554,0)" xlink:href="#aw"/><use transform="matrix(0.010850694444444444,0,0,0.010850694444444444,87.00086805555554,0)" xlink:href="#aJ"/><use transform="matrix(0.010850694444444444,0,0,0.010850694444444444,105.18663194444441,0)" xlink:href="#ag"/><use transform="matrix(0.010850694444444444,0,0,0.010850694444444444,118.3159722222222,0)" xlink:href="#Z"/><use transform="matrix(0.010850694444444444,0,0,0.010850694444444444,131.27170138888886,0)" xlink:href="#aa"/></g><path d="M52 0l541-1490h220L1361 0h-200l-149-416H398L254 0H52zm404-582h497c-103-290-145-390-251-756-108 377-145 460-246 756" id="aK"/><g id="w"><use transform="matrix(0.010850694444444444,0,0,0.010850694444444444,0,0)" xlink:href="#aG"/><use transform="matrix(0.010850694444444444,0,0,0.010850694444444444,13.324652777777777,0)" xlink:href="#ab"/><use transform="matrix(0.010850694444444444,0,0,0.010850694444444444,26.931423611111104,0)" xlink:href="#Z"/><use transform="matrix(0.010850694444444444,0,0,0.010850694444444444,39.88715277777777,0)" xlink:href="#ag"/><use transform="matrix(0.010850694444444444,0,0,0.010850694444444444,53.01649305555556,0)" xlink:href="#aK"/><use transform="matrix(0.010850694444444444,0,0,0.010850694444444444,67.91449652777777,0)" xlink:href="#ah"/></g><g id="x"><use transform="matrix(0.010850694444444444,0,0,0.010850694444444444,0,0)" xlink:href="#ah"/><use transform="matrix(0.010850694444444444,0,0,0.010850694444444444,7.269965277777778,0)" xlink:href="#af"/><use transform="matrix(0.010850694444444444,0,0,0.010850694444444444,12.651909722222221,0)" xlink:href="#am"/><use transform="matrix(0.010850694444444444,0,0,0.010850694444444444,32.11805555555556,0)" xlink:href="#Z"/><use transform="matrix(0.010850694444444444,0,0,0.010850694444444444,45.07378472222222,0)" xlink:href="#Y"/><use transform="matrix(0.010850694444444444,0,0,0.010850694444444444,56.803385416666664,0)" xlink:href="#ah"/><use transform="matrix(0.010850694444444444,0,0,0.010850694444444444,64.18185763888889,0)" xlink:href="#al"/><use transform="matrix(0.010850694444444444,0,0,0.010850694444444444,76.66015625,0)" xlink:href="#am"/><use transform="matrix(0.010850694444444444,0,0,0.010850694444444444,96.12630208333333,0)" xlink:href="#ab"/></g><g id="y"><use transform="matrix(0.010850694444444444,0,0,0.010850694444444444,0,0)" xlink:href="#aD"/><use transform="matrix(0.010850694444444444,0,0,0.010850694444444444,8.22482638888889,0)" xlink:href="#ac"/><use transform="matrix(0.010850694444444444,0,0,0.010850694444444444,20.421006944444443,0)" xlink:href="#aI"/><use transform="matrix(0.010850694444444444,0,0,0.010850694444444444,34.396701388888886,0)" xlink:href="#Z"/><use transform="matrix(0.010850694444444444,0,0,0.010850694444444444,47.35243055555556,0)" xlink:href="#ab"/><use transform="matrix(0.010850694444444444,0,0,0.010850694444444444,60.959201388888886,0)" xlink:href="#aG"/><use transform="matrix(0.010850694444444444,0,0,0.010850694444444444,74.28385416666666,0)" xlink:href="#aa"/><use transform="matrix(0.010850694444444444,0,0,0.010850694444444444,82.99696180555556,0)" xlink:href="#ah"/><use transform="matrix(0.010850694444444444,0,0,0.010850694444444444,90.26692708333333,0)" xlink:href="#aE"/><use transform="matrix(0.010850694444444444,0,0,0.010850694444444444,104.52473958333333,0)" xlink:href="#ah"/><use transform="matrix(0.010850694444444444,0,0,0.010850694444444444,111.90321180555556,0)" xlink:href="#al"/><use transform="matrix(0.010850694444444444,0,0,0.010850694444444444,124.38151041666666,0)" xlink:href="#ah"/><use transform="matrix(0.010850694444444444,0,0,0.010850694444444444,131.65147569444443,0)" xlink:href="#ak"/><use transform="matrix(0.010850694444444444,0,0,0.010850694444444444,144.79166666666666,0)" xlink:href="#Y"/></g><g id="z"><use transform="matrix(0.010850694444444444,0,0,0.010850694444444444,0,0)" xlink:href="#aD"/><use transform="matrix(0.010850694444444444,0,0,0.010850694444444444,8.22482638888889,0)" xlink:href="#ac"/><use transform="matrix(0.010850694444444444,0,0,0.010850694444444444,20.421006944444443,0)" xlink:href="#aI"/><use transform="matrix(0.010850694444444444,0,0,0.010850694444444444,34.396701388888886,0)" xlink:href="#Z"/><use transform="matrix(0.010850694444444444,0,0,0.010850694444444444,47.35243055555556,0)" xlink:href="#ao"/><use transform="matrix(0.010850694444444444,0,0,0.010850694444444444,60.04774305555555,0)" xlink:href="#aG"/><use transform="matrix(0.010850694444444444,0,0,0.010850694444444444,73.37239583333333,0)" xlink:href="#aa"/><use transform="matrix(0.010850694444444444,0,0,0.010850694444444444,81.36935763888889,0)" xlink:href="#ae"/></g><g id="A"><use transform="matrix(0.010850694444444444,0,0,0.010850694444444444,0,0)" xlink:href="#aI"/><use transform="matrix(0.010850694444444444,0,0,0.010850694444444444,13.975694444444445,0)" xlink:href="#Z"/><use transform="matrix(0.010850694444444444,0,0,0.010850694444444444,26.931423611111104,0)" xlink:href="#ab"/><use transform="matrix(0.010850694444444444,0,0,0.010850694444444444,40.53819444444444,0)" xlink:href="#aG"/><use transform="matrix(0.010850694444444444,0,0,0.010850694444444444,53.86284722222222,0)" xlink:href="#aa"/><use transform="matrix(0.010850694444444444,0,0,0.010850694444444444,62.57595486111111,0)" xlink:href="#ah"/><use transform="matrix(0.010850694444444444,0,0,0.010850694444444444,69.84592013888889,0)" xlink:href="#aE"/><use transform="matrix(0.010850694444444444,0,0,0.010850694444444444,84.10373263888889,0)" xlink:href="#ah"/><use transform="matrix(0.010850694444444444,0,0,0.010850694444444444,91.48220486111111,0)" xlink:href="#al"/><use transform="matrix(0.010850694444444444,0,0,0.010850694444444444,103.96050347222221,0)" xlink:href="#ah"/><use transform="matrix(0.010850694444444444,0,0,0.010850694444444444,111.23046874999997,0)" xlink:href="#ak"/><use transform="matrix(0.010850694444444444,0,0,0.010850694444444444,124.3706597222222,0)" xlink:href="#Y"/><use transform="matrix(0.010850694444444444,0,0,0.010850694444444444,136.10026041666666,0)" xlink:href="#Z"/><use transform="matrix(0.010850694444444444,0,0,0.010850694444444444,149.05598958333331,0)" xlink:href="#Y"/></g><g id="B"><use transform="matrix(0.010850694444444444,0,0,0.010850694444444444,0,0)" xlink:href="#an"/><use transform="matrix(0.010850694444444444,0,0,0.010850694444444444,12.38064236111111,0)" xlink:href="#al"/><use transform="matrix(0.010850694444444444,0,0,0.010850694444444444,24.85894097222222,0)" xlink:href="#aa"/><use transform="matrix(0.010850694444444444,0,0,0.010850694444444444,32.85590277777778,0)" xlink:href="#ao"/><use transform="matrix(0.010850694444444444,0,0,0.010850694444444444,45.55121527777778,0)" xlink:href="#ap"/><use transform="matrix(0.010850694444444444,0,0,0.010850694444444444,58.69140625,0)" xlink:href="#al"/><use transform="matrix(0.010850694444444444,0,0,0.010850694444444444,71.16970486111111,0)" xlink:href="#aa"/><use transform="matrix(0.010850694444444444,0,0,0.010850694444444444,79.53559027777779,0)" xlink:href="#ai"/><use transform="matrix(0.010850694444444444,0,0,0.010850694444444444,87.64105902777779,0)" xlink:href="#aH"/><use transform="matrix(0.010850694444444444,0,0,0.010850694444444444,101.1935763888889,0)" xlink:href="#ar"/><use transform="matrix(0.010850694444444444,0,0,0.010850694444444444,115.2126736111111,0)" xlink:href="#aj"/></g><g id="C"><use transform="matrix(0.010850694444444444,0,0,0.010850694444444444,0,0)" xlink:href="#aI"/><use transform="matrix(0.010850694444444444,0,0,0.010850694444444444,13.975694444444445,0)" xlink:href="#Z"/><use transform="matrix(0.010850694444444444,0,0,0.010850694444444444,26.931423611111104,0)" xlink:href="#ao"/><use transform="matrix(0.010850694444444444,0,0,0.010850694444444444,39.62673611111111,0)" xlink:href="#aG"/><use transform="matrix(0.010850694444444444,0,0,0.010850694444444444,52.951388888888886,0)" xlink:href="#aa"/><use transform="matrix(0.010850694444444444,0,0,0.010850694444444444,60.948350694444436,0)" xlink:href="#ae"/><use transform="matrix(0.010850694444444444,0,0,0.010850694444444444,74.55512152777777,0)" xlink:href="#Y"/></g><g id="D"><use transform="matrix(0.010850694444444444,0,0,0.010850694444444444,0,0)" xlink:href="#aD"/><use transform="matrix(0.010850694444444444,0,0,0.010850694444444444,8.22482638888889,0)" xlink:href="#ac"/><use transform="matrix(0.010850694444444444,0,0,0.010850694444444444,20.421006944444443,0)" xlink:href="#aI"/><use transform="matrix(0.010850694444444444,0,0,0.010850694444444444,34.396701388888886,0)" xlink:href="#Z"/><use transform="matrix(0.010850694444444444,0,0,0.010850694444444444,47.35243055555556,0)" xlink:href="#ao"/><use transform="matrix(0.010850694444444444,0,0,0.010850694444444444,60.04774305555555,0)" xlink:href="#aG"/><use transform="matrix(0.010850694444444444,0,0,0.010850694444444444,73.37239583333333,0)" xlink:href="#aa"/><use transform="matrix(0.010850694444444444,0,0,0.010850694444444444,81.36935763888889,0)" xlink:href="#ae"/><use transform="matrix(0.010850694444444444,0,0,0.010850694444444444,94.97612847222221,0)" xlink:href="#aE"/><use transform="matrix(0.010850694444444444,0,0,0.010850694444444444,109.23394097222221,0)" xlink:href="#ah"/><use transform="matrix(0.010850694444444444,0,0,0.010850694444444444,116.61241319444441,0)" xlink:href="#al"/><use transform="matrix(0.010850694444444444,0,0,0.010850694444444444,129.09071180555554,0)" xlink:href="#ah"/><use transform="matrix(0.010850694444444444,0,0,0.010850694444444444,136.36067708333331,0)" xlink:href="#ak"/><use transform="matrix(0.010850694444444444,0,0,0.010850694444444444,149.50086805555554,0)" xlink:href="#Y"/></g><g id="E"><use transform="matrix(0.010850694444444444,0,0,0.010850694444444444,0,0)" xlink:href="#aD"/><use transform="matrix(0.010850694444444444,0,0,0.010850694444444444,8.22482638888889,0)" xlink:href="#ac"/><use transform="matrix(0.010850694444444444,0,0,0.010850694444444444,20.421006944444443,0)" xlink:href="#ay"/><use transform="matrix(0.010850694444444444,0,0,0.010850694444444444,32.98611111111111,0)" xlink:href="#aG"/><use transform="matrix(0.010850694444444444,0,0,0.010850694444444444,46.310763888888886,0)" xlink:href="#ao"/><use transform="matrix(0.010850694444444444,0,0,0.010850694444444444,59.22309027777778,0)" xlink:href="#al"/><use transform="matrix(0.010850694444444444,0,0,0.010850694444444444,71.70138888888889,0)" xlink:href="#aA"/><use transform="matrix(0.010850694444444444,0,0,0.010850694444444444,77.08333333333333,0)" xlink:href="#Z"/></g><g id="F"><use transform="matrix(0.010850694444444444,0,0,0.010850694444444444,0,0)" xlink:href="#aI"/><use transform="matrix(0.010850694444444444,0,0,0.010850694444444444,13.975694444444445,0)" xlink:href="#Z"/><use transform="matrix(0.010850694444444444,0,0,0.010850694444444444,26.931423611111104,0)" xlink:href="#ao"/><use transform="matrix(0.010850694444444444,0,0,0.010850694444444444,39.62673611111111,0)" xlink:href="#aG"/><use transform="matrix(0.010850694444444444,0,0,0.010850694444444444,52.951388888888886,0)" xlink:href="#aa"/><use transform="matrix(0.010850694444444444,0,0,0.010850694444444444,60.948350694444436,0)" xlink:href="#ae"/><use transform="matrix(0.010850694444444444,0,0,0.010850694444444444,74.55512152777777,0)" xlink:href="#aE"/><use transform="matrix(0.010850694444444444,0,0,0.010850694444444444,88.81293402777777,0)" xlink:href="#ah"/><use transform="matrix(0.010850694444444444,0,0,0.010850694444444444,96.19140624999997,0)" xlink:href="#al"/><use transform="matrix(0.010850694444444444,0,0,0.010850694444444444,108.66970486111111,0)" xlink:href="#ah"/><use transform="matrix(0.010850694444444444,0,0,0.010850694444444444,115.93967013888887,0)" xlink:href="#ak"/><use transform="matrix(0.010850694444444444,0,0,0.010850694444444444,129.0798611111111,0)" xlink:href="#Y"/><use transform="matrix(0.010850694444444444,0,0,0.010850694444444444,140.80946180555554,0)" xlink:href="#Z"/><use transform="matrix(0.010850694444444444,0,0,0.010850694444444444,153.7651909722222,0)" xlink:href="#Y"/></g><g id="G"><use transform="matrix(0.010850694444444444,0,0,0.010850694444444444,0,0)" xlink:href="#ay"/><use transform="matrix(0.010850694444444444,0,0,0.010850694444444444,12.565104166666666,0)" xlink:href="#aG"/><use transform="matrix(0.010850694444444444,0,0,0.010850694444444444,25.889756944444443,0)" xlink:href="#ao"/><use transform="matrix(0.010850694444444444,0,0,0.010850694444444444,38.80208333333333,0)" xlink:href="#al"/><use transform="matrix(0.010850694444444444,0,0,0.010850694444444444,51.28038194444444,0)" xlink:href="#aA"/><use transform="matrix(0.010850694444444444,0,0,0.010850694444444444,56.662326388888886,0)" xlink:href="#Z"/><use transform="matrix(0.010850694444444444,0,0,0.010850694444444444,69.61805555555556,0)" xlink:href="#Y"/></g><path d="M180 0v-1490h510c348 0 508 209 508 474 0 266-160 477-507 477H370V0H180zm190-706h312c236 0 327-133 327-310 0-176-91-307-329-307H370v617" id="aL"/><g id="H"><use transform="matrix(0.010850694444444444,0,0,0.010850694444444444,0,0)" xlink:href="#aB"/><use transform="matrix(0.010850694444444444,0,0,0.010850694444444444,16.23263888888889,0)" xlink:href="#av"/><use transform="matrix(0.010850694444444444,0,0,0.010850694444444444,29.58984375,0)" xlink:href="#aL"/></g><path d="M603 20c-253 0-434-161-469-399h188c31 132 124 231 281 231 227 0 367-207 367-568h-12c-80 122-211 199-367 199-257 0-469-206-469-493 0-278 200-505 506-500 245 4 520 158 520 706 0 527-208 824-545 824zm16-703c181 0 324-157 324-332 0-171-135-328-318-328-180 0-317 148-317 332 0 183 131 328 311 328" id="aM"/><g id="I"><use transform="matrix(0.010850694444444444,0,0,0.010850694444444444,0,0)" xlink:href="#ao"/><use transform="matrix(0.010850694444444444,0,0,0.010850694444444444,12.6953125,0)" xlink:href="#ap"/><use transform="matrix(0.010850694444444444,0,0,0.010850694444444444,25.83550347222222,0)" xlink:href="#al"/><use transform="matrix(0.010850694444444444,0,0,0.010850694444444444,38.31380208333333,0)" xlink:href="#aa"/><use transform="matrix(0.010850694444444444,0,0,0.010850694444444444,46.679687499999986,0)" xlink:href="#ai"/><use transform="matrix(0.010850694444444444,0,0,0.010850694444444444,54.785156249999986,0)" xlink:href="#aM"/><use transform="matrix(0.010850694444444444,0,0,0.010850694444444444,68.56553819444444,0)" xlink:href="#aj"/></g><g id="J"><use transform="matrix(0.010850694444444444,0,0,0.010850694444444444,0,0)" xlink:href="#Y"/><use transform="matrix(0.010850694444444444,0,0,0.010850694444444444,11.729600694444445,0)" xlink:href="#ah"/><use transform="matrix(0.010850694444444444,0,0,0.010850694444444444,18.99956597222222,0)" xlink:href="#aa"/><use transform="matrix(0.010850694444444444,0,0,0.010850694444444444,26.99652777777778,0)" xlink:href="#Z"/><use transform="matrix(0.010850694444444444,0,0,0.010850694444444444,39.95225694444444,0)" xlink:href="#Z"/><use transform="matrix(0.010850694444444444,0,0,0.010850694444444444,52.90798611111111,0)" xlink:href="#ah"/><use transform="matrix(0.010850694444444444,0,0,0.010850694444444444,60.177951388888886,0)" xlink:href="#at"/><use transform="matrix(0.010850694444444444,0,0,0.010850694444444444,76.92057291666666,0)" xlink:href="#al"/><use transform="matrix(0.010850694444444444,0,0,0.010850694444444444,89.39887152777777,0)" xlink:href="#am"/><use transform="matrix(0.010850694444444444,0,0,0.010850694444444444,108.86501736111111,0)" xlink:href="#Z"/></g><path d="M677 24c-213 0-288-135-325-197h-20V0H158v-1490h180v551h14c37-59 106-193 324-193 279 0 474 222 474 576 0 356-194 580-473 580zm-27-161c209 0 317-186 317-421 0-232-105-413-317-413-206 0-314 166-314 413 0 249 111 421 314 421" id="aN"/><g id="K"><use transform="matrix(0.010850694444444444,0,0,0.010850694444444444,0,0)" xlink:href="#aD"/><use transform="matrix(0.010850694444444444,0,0,0.010850694444444444,8.22482638888889,0)" xlink:href="#ac"/><use transform="matrix(0.010850694444444444,0,0,0.010850694444444444,20.421006944444443,0)" xlink:href="#at"/><use transform="matrix(0.010850694444444444,0,0,0.010850694444444444,37.16362847222222,0)" xlink:href="#Z"/><use transform="matrix(0.010850694444444444,0,0,0.010850694444444444,50.119357638888886,0)" xlink:href="#af"/><use transform="matrix(0.010850694444444444,0,0,0.010850694444444444,55.50130208333333,0)" xlink:href="#aC"/><use transform="matrix(0.010850694444444444,0,0,0.010850694444444444,69.12977430555554,0)" xlink:href="#ap"/><use transform="matrix(0.010850694444444444,0,0,0.010850694444444444,82.26996527777777,0)" xlink:href="#aN"/><use transform="matrix(0.010850694444444444,0,0,0.010850694444444444,95.87673611111111,0)" xlink:href="#aG"/><use transform="matrix(0.010850694444444444,0,0,0.010850694444444444,109.20138888888887,0)" xlink:href="#aa"/><use transform="matrix(0.010850694444444444,0,0,0.010850694444444444,117.91449652777777,0)" xlink:href="#ap"/><use transform="matrix(0.010850694444444444,0,0,0.010850694444444444,131.0546875,0)" xlink:href="#aG"/><use transform="matrix(0.010850694444444444,0,0,0.010850694444444444,144.37934027777777,0)" xlink:href="#aG"/><use transform="matrix(0.010850694444444444,0,0,0.010850694444444444,157.70399305555554,0)" xlink:href="#ae"/></g><g id="L"><use transform="matrix(0.010850694444444444,0,0,0.010850694444444444,0,0)" xlink:href="#at"/><use transform="matrix(0.010850694444444444,0,0,0.010850694444444444,16.74262152777778,0)" xlink:href="#Z"/><use transform="matrix(0.010850694444444444,0,0,0.010850694444444444,29.698350694444443,0)" xlink:href="#af"/><use transform="matrix(0.010850694444444444,0,0,0.010850694444444444,35.080295138888886,0)" xlink:href="#aC"/><use transform="matrix(0.010850694444444444,0,0,0.010850694444444444,48.70876736111111,0)" xlink:href="#ap"/><use transform="matrix(0.010850694444444444,0,0,0.010850694444444444,61.84895833333333,0)" xlink:href="#aN"/><use transform="matrix(0.010850694444444444,0,0,0.010850694444444444,75.45572916666666,0)" xlink:href="#aG"/><use transform="matrix(0.010850694444444444,0,0,0.010850694444444444,88.78038194444443,0)" xlink:href="#aa"/><use transform="matrix(0.010850694444444444,0,0,0.010850694444444444,97.49348958333333,0)" xlink:href="#ap"/><use transform="matrix(0.010850694444444444,0,0,0.010850694444444444,110.63368055555556,0)" xlink:href="#aG"/><use transform="matrix(0.010850694444444444,0,0,0.010850694444444444,123.95833333333331,0)" xlink:href="#aG"/><use transform="matrix(0.010850694444444444,0,0,0.010850694444444444,137.2829861111111,0)" xlink:href="#ae"/><use transform="matrix(0.010850694444444444,0,0,0.010850694444444444,150.88975694444443,0)" xlink:href="#Y"/></g><g id="M"><use transform="matrix(0.010850694444444444,0,0,0.010850694444444444,0,0)" xlink:href="#ag"/><use transform="matrix(0.010850694444444444,0,0,0.010850694444444444,13.129340277777777,0)" xlink:href="#Z"/><use transform="matrix(0.010850694444444444,0,0,0.010850694444444444,26.085069444444443,0)" xlink:href="#af"/><use transform="matrix(0.010850694444444444,0,0,0.010850694444444444,31.46701388888889,0)" xlink:href="#aC"/><use transform="matrix(0.010850694444444444,0,0,0.010850694444444444,45.09548611111111,0)" xlink:href="#ap"/><use transform="matrix(0.010850694444444444,0,0,0.010850694444444444,58.23567708333333,0)" xlink:href="#aN"/><use transform="matrix(0.010850694444444444,0,0,0.010850694444444444,71.84244791666666,0)" xlink:href="#aG"/><use transform="matrix(0.010850694444444444,0,0,0.010850694444444444,85.16710069444443,0)" xlink:href="#aa"/><use transform="matrix(0.010850694444444444,0,0,0.010850694444444444,93.88020833333333,0)" xlink:href="#ap"/><use transform="matrix(0.010850694444444444,0,0,0.010850694444444444,107.02039930555556,0)" xlink:href="#aG"/><use transform="matrix(0.010850694444444444,0,0,0.010850694444444444,120.34505208333331,0)" xlink:href="#aG"/><use transform="matrix(0.010850694444444444,0,0,0.010850694444444444,133.6697048611111,0)" xlink:href="#ae"/><use transform="matrix(0.010850694444444444,0,0,0.010850694444444444,147.27647569444443,0)" xlink:href="#at"/><use transform="matrix(0.010850694444444444,0,0,0.010850694444444444,164.0190972222222,0)" xlink:href="#al"/><use transform="matrix(0.010850694444444444,0,0,0.010850694444444444,176.49739583333331,0)" xlink:href="#am"/><use transform="matrix(0.010850694444444444,0,0,0.010850694444444444,195.96354166666666,0)" xlink:href="#Z"/></g><path d="M140 405l46-156c120 36 205 19 263-150l32-93L54-1118h197c107 313 237 620 324 950 87-331 219-637 326-950h196L606 167c-68 178-176 259-334 259-64 0-113-12-132-21" id="aO"/><g id="N"><use transform="matrix(0.010850694444444444,0,0,0.010850694444444444,0,0)" xlink:href="#aD"/><use transform="matrix(0.010850694444444444,0,0,0.010850694444444444,8.22482638888889,0)" xlink:href="#ac"/><use transform="matrix(0.010850694444444444,0,0,0.010850694444444444,20.421006944444443,0)" xlink:href="#aB"/><use transform="matrix(0.010850694444444444,0,0,0.010850694444444444,36.65364583333333,0)" xlink:href="#af"/><use transform="matrix(0.010850694444444444,0,0,0.010850694444444444,42.03559027777777,0)" xlink:href="#ah"/><use transform="matrix(0.010850694444444444,0,0,0.010850694444444444,49.73958333333333,0)" xlink:href="#aO"/></g><g id="O"><use transform="matrix(0.010850694444444444,0,0,0.010850694444444444,0,0)" xlink:href="#aB"/><use transform="matrix(0.010850694444444444,0,0,0.010850694444444444,16.23263888888889,0)" xlink:href="#af"/><use transform="matrix(0.010850694444444444,0,0,0.010850694444444444,21.614583333333336,0)" xlink:href="#ah"/><use transform="matrix(0.010850694444444444,0,0,0.010850694444444444,28.884548611111114,0)" xlink:href="#af"/><use transform="matrix(0.010850694444444444,0,0,0.010850694444444444,34.26649305555556,0)" xlink:href="#Z"/><use transform="matrix(0.010850694444444444,0,0,0.010850694444444444,47.22222222222222,0)" xlink:href="#Y"/></g><g id="P"><use transform="matrix(0.010850694444444444,0,0,0.010850694444444444,0,0)" xlink:href="#ao"/><use transform="matrix(0.010850694444444444,0,0,0.010850694444444444,12.6953125,0)" xlink:href="#af"/><use transform="matrix(0.010850694444444444,0,0,0.010850694444444444,18.077256944444443,0)" xlink:href="#ah"/><use transform="matrix(0.010850694444444444,0,0,0.010850694444444444,25.78125,0)" xlink:href="#aO"/><use transform="matrix(0.010850694444444444,0,0,0.010850694444444444,38.37890625,0)" xlink:href="#at"/><use transform="matrix(0.010850694444444444,0,0,0.010850694444444444,55.12152777777778,0)" xlink:href="#al"/><use transform="matrix(0.010850694444444444,0,0,0.010850694444444444,67.59982638888889,0)" xlink:href="#am"/><use transform="matrix(0.010850694444444444,0,0,0.010850694444444444,87.06597222222221,0)" xlink:href="#Z"/></g><g id="Q"><use transform="matrix(0.010850694444444444,0,0,0.010850694444444444,0,0)" xlink:href="#aD"/><use transform="matrix(0.010850694444444444,0,0,0.010850694444444444,8.22482638888889,0)" xlink:href="#ac"/><use transform="matrix(0.010850694444444444,0,0,0.010850694444444444,20.421006944444443,0)" xlink:href="#aE"/><use transform="matrix(0.010850694444444444,0,0,0.010850694444444444,34.67881944444444,0)" xlink:href="#ah"/><use transform="matrix(0.010850694444444444,0,0,0.010850694444444444,42.057291666666664,0)" xlink:href="#al"/><use transform="matrix(0.010850694444444444,0,0,0.010850694444444444,54.53559027777778,0)" xlink:href="#ah"/><use transform="matrix(0.010850694444444444,0,0,0.010850694444444444,61.588541666666664,0)" xlink:href="#Z"/></g><g id="R"><use transform="matrix(0.010850694444444444,0,0,0.010850694444444444,0,0)" xlink:href="#ao"/><use transform="matrix(0.010850694444444444,0,0,0.010850694444444444,12.6953125,0)" xlink:href="#ap"/><use transform="matrix(0.010850694444444444,0,0,0.010850694444444444,25.83550347222222,0)" xlink:href="#al"/><use transform="matrix(0.010850694444444444,0,0,0.010850694444444444,38.31380208333333,0)" xlink:href="#aa"/><use transform="matrix(0.010850694444444444,0,0,0.010850694444444444,46.679687499999986,0)" xlink:href="#ai"/><use transform="matrix(0.010850694444444444,0,0,0.010850694444444444,54.785156249999986,0)" xlink:href="#aH"/><use transform="matrix(0.010850694444444444,0,0,0.010850694444444444,68.3376736111111,0)" xlink:href="#aj"/></g><g id="S"><use transform="matrix(0.010850694444444444,0,0,0.010850694444444444,0,0)" xlink:href="#aE"/><use transform="matrix(0.010850694444444444,0,0,0.010850694444444444,14.2578125,0)" xlink:href="#ah"/><use transform="matrix(0.010850694444444444,0,0,0.010850694444444444,21.63628472222222,0)" xlink:href="#al"/><use transform="matrix(0.010850694444444444,0,0,0.010850694444444444,34.11458333333333,0)" xlink:href="#ah"/><use transform="matrix(0.010850694444444444,0,0,0.010850694444444444,41.16753472222222,0)" xlink:href="#Z"/><use transform="matrix(0.010850694444444444,0,0,0.010850694444444444,54.123263888888886,0)" xlink:href="#Y"/></g><g id="T"><use transform="matrix(0.010850694444444444,0,0,0.010850694444444444,0,0)" xlink:href="#Y"/><use transform="matrix(0.010850694444444444,0,0,0.010850694444444444,11.729600694444445,0)" xlink:href="#ah"/><use transform="matrix(0.010850694444444444,0,0,0.010850694444444444,19.108072916666668,0)" xlink:href="#al"/><use transform="matrix(0.010850694444444444,0,0,0.010850694444444444,31.586371527777775,0)" xlink:href="#ah"/><use transform="matrix(0.010850694444444444,0,0,0.010850694444444444,38.639322916666664,0)" xlink:href="#Z"/><use transform="matrix(0.010850694444444444,0,0,0.010850694444444444,51.59505208333333,0)" xlink:href="#at"/><use transform="matrix(0.010850694444444444,0,0,0.010850694444444444,68.33767361111111,0)" xlink:href="#al"/><use transform="matrix(0.010850694444444444,0,0,0.010850694444444444,80.81597222222223,0)" xlink:href="#am"/><use transform="matrix(0.010850694444444444,0,0,0.010850694444444444,100.28211805555556,0)" xlink:href="#Z"/></g><g id="U"><use transform="matrix(0.010850694444444444,0,0,0.010850694444444444,0,0)" xlink:href="#aD"/><use transform="matrix(0.010850694444444444,0,0,0.010850694444444444,8.22482638888889,0)" xlink:href="#ac"/><use transform="matrix(0.010850694444444444,0,0,0.010850694444444444,20.421006944444443,0)" xlink:href="#aI"/><use transform="matrix(0.010850694444444444,0,0,0.010850694444444444,34.396701388888886,0)" xlink:href="#Z"/><use transform="matrix(0.010850694444444444,0,0,0.010850694444444444,47.35243055555556,0)" xlink:href="#aC"/><use transform="matrix(0.010850694444444444,0,0,0.010850694444444444,60.98090277777778,0)" xlink:href="#af"/><use transform="matrix(0.010850694444444444,0,0,0.010850694444444444,66.36284722222221,0)" xlink:href="#aG"/><use transform="matrix(0.010850694444444444,0,0,0.010850694444444444,79.68749999999999,0)" xlink:href="#ag"/></g><g id="V"><use transform="matrix(0.010850694444444444,0,0,0.010850694444444444,0,0)" xlink:href="#aI"/><use transform="matrix(0.010850694444444444,0,0,0.010850694444444444,13.975694444444445,0)" xlink:href="#Z"/><use transform="matrix(0.010850694444444444,0,0,0.010850694444444444,26.931423611111104,0)" xlink:href="#aC"/><use transform="matrix(0.010850694444444444,0,0,0.010850694444444444,40.55989583333333,0)" xlink:href="#af"/><use transform="matrix(0.010850694444444444,0,0,0.010850694444444444,45.94184027777778,0)" xlink:href="#aG"/><use transform="matrix(0.010850694444444444,0,0,0.010850694444444444,59.26649305555555,0)" xlink:href="#ag"/><use transform="matrix(0.010850694444444444,0,0,0.010850694444444444,72.39583333333333,0)" xlink:href="#Y"/></g><g id="W"><use transform="matrix(0.010850694444444444,0,0,0.010850694444444444,0,0)" xlink:href="#aa"/><use transform="matrix(0.010850694444444444,0,0,0.010850694444444444,7.996961805555555,0)" xlink:href="#Z"/><use transform="matrix(0.010850694444444444,0,0,0.010850694444444444,20.95269097222222,0)" xlink:href="#aC"/><use transform="matrix(0.010850694444444444,0,0,0.010850694444444444,34.58116319444444,0)" xlink:href="#af"/><use transform="matrix(0.010850694444444444,0,0,0.010850694444444444,39.963107638888886,0)" xlink:href="#aG"/><use transform="matrix(0.010850694444444444,0,0,0.010850694444444444,53.287760416666664,0)" xlink:href="#ag"/><use transform="matrix(0.010850694444444444,0,0,0.010850694444444444,66.41710069444444,0)" xlink:href="#at"/><use transform="matrix(0.010850694444444444,0,0,0.010850694444444444,83.15972222222223,0)" xlink:href="#al"/><use transform="matrix(0.010850694444444444,0,0,0.010850694444444444,95.63802083333334,0)" xlink:href="#am"/><use transform="matrix(0.010850694444444444,0,0,0.010850694444444444,115.10416666666666,0)" xlink:href="#Z"/></g></defs></g></svg>