<svg xmlns="http://www.w3.org/2000/svg" xmlns:xlink="http://www.w3.org/1999/xlink" xmlns:lucid="lucid" width="1262" height="682"><g transform="translate(1621 541)" lucid:page-tab-id=".Q4MUjXso07N"><path d="M-1620-532a8 8 0 0 1 8-8h1244a8 8 0 0 1 8 8v664a8 8 0 0 1-8 8h-1244a8 8 0 0 1-8-8z" stroke="#000" stroke-width="2" fill="#fff"/><path d="M-1185.38-509.63v-.1A10.27 10.27 0 0 1-1175.1-520a10.27 10.27 0 0 1 10.26 10.27 10.27 10.27 0 0 1-10.27 10.27 10.27 10.27 0 0 1-10.28-10.27v-.1" stroke="#3a414a" stroke-width="4" fill="#fff"/><path d="M-1200-514a6 6 0 0 1 6-6h37.8a6 6 0 0 1 6 6v70.17a6 6 0 0 1-6 6h-37.8a6 6 0 0 1-6-6z" fill="none"/><path d="M-1175.1-499.46v28.76l24.9 32.87m-24.9-32.87l-24.9 32.87m0-51.36h49.8" stroke="#3a414a" stroke-width="4" fill="none"/><use xlink:href="#a" transform="matrix(1,0,0,1,-1280,-437.8336025652512) translate(76.54351128472223 16.65863715277778)"/><path d="M-704.72-300c0 24.88-30.28 45.04-67.64 45.04S-840-275.12-840-300s30.28-45.04 67.64-45.04 67.64 20.17 67.64 45.04z" stroke="#000" stroke-width="2" fill="#fff"/><use xlink:href="#b" transform="matrix(1,0,0,1,-819.7074262001,-327.02412604186327) translate(16.04710937499999 23.46212890625)"/><use xlink:href="#c" transform="matrix(1,0,0,1,-819.7074262001,-327.02412604186327) translate(23.444423828125 43.716875)"/><path d="M-1064.72-300c0 24.88-30.28 45.04-67.64 45.04S-1200-275.12-1200-300s30.28-45.04 67.64-45.04 67.64 20.17 67.64 45.04z" stroke="#000" stroke-width="2" fill="#fff"/><use xlink:href="#d" transform="matrix(1,0,0,1,-1179.7074262001,-327.02412604186327) translate(12.973749999999995 23.46212890625)"/><use xlink:href="#c" transform="matrix(1,0,0,1,-1179.7074262001,-327.02412604186327) translate(23.444423828125 43.716875)"/><path d="M-884.72-300c0 24.88-30.28 45.04-67.64 45.04S-1020-275.12-1020-300s30.28-45.04 67.64-45.04 67.64 20.17 67.64 45.04z" stroke="#000" stroke-width="2" fill="#fff"/><use xlink:href="#e" transform="matrix(1,0,0,1,-999.7074262001,-327.02412604186327) translate(9.275092773437493 23.46212890625)"/><use xlink:href="#c" transform="matrix(1,0,0,1,-999.7074262001,-327.02412604186327) translate(23.444423828125 43.716875)"/><path d="M-1185.38-173.8v-.1a10.27 10.27 0 0 1 10.28-10.27 10.27 10.27 0 0 1 10.26 10.27 10.27 10.27 0 0 1-10.27 10.28 10.27 10.27 0 0 1-10.28-10.28v-.1" stroke="#3a414a" stroke-width="4" fill="#fff"/><path d="M-1200-178.17a6 6 0 0 1 6-6h37.8a6 6 0 0 1 6 6V-108a6 6 0 0 1-6 6h-37.8a6 6 0 0 1-6-6z" fill="none"/><path d="M-1175.1-163.63v28.76l24.9 32.87m-24.9-32.87L-1200-102m0-51.35h49.8" stroke="#3a414a" stroke-width="4" fill="none"/><use xlink:href="#f" transform="matrix(1,0,0,1,-1280,-102) translate(64.36414930555556 16.65863715277778)"/><path d="M-1175.6-467.4h-27.5a12 12 0 0 0-12 12v62.46a12 12 0 0 0 12 12h418.74a12 12 0 0 1 12 12v22.4M-1175.62-467.4h3.5" stroke="#333" fill="none"/><path d="M-771.88-346.02l-.46-.02h-.5v-.5h.96zM-771.88-232.05l-.15 1.93-.46 1.9-.74 1.8-1.02 1.68-1.28 1.5-1.5 1.26-1.65 1.02-1.8.75-1.9.45-1.94.15h-378.75l-1.8.15-1.77.42-1.67.7-1.54.94-1.37 1.18-1.18 1.38-.94 1.54-.7 1.67-.42 1.76-.13 1.82v21.37h-.95v-21.4l.15-1.94.46-1.9.75-1.82 1.02-1.66 1.27-1.5 1.5-1.26 1.66-1.03 1.8-.74 1.9-.45 1.95-.15h378.74l1.83-.14 1.75-.4 1.67-.7 1.54-.95 1.4-1.17 1.17-1.38.94-1.54.7-1.67.42-1.77.15-1.82v-21.36h.95z" stroke="#333" stroke-width=".05" fill="#333"/><path d="M-1174.63-186.12l-.47-.06-.48.06v-.58h.95z" fill="#333"/><path stroke="#333" stroke-width=".05" fill="#333"/><path d="M-772.37-253.96h.5v.5h-.96v-.52z" fill="#333"/><path stroke="#333" stroke-width=".05" fill="#333"/><path d="M-1169-459.98h24.64a12 12 0 0 1 12 12v62.04c-2.76 0-5 2.24-5 5s2.24 5 5 5v29.4M-1168.98-459.98h-3.5" stroke="#333" fill="none"/><path d="M-1131.88-346.02l-.46-.02h-.5v-.5h.96z" stroke="#333" stroke-width=".05" fill="#333"/><path d="M-1170-467.92h205.64a12 12 0 0 1 12 12v69.98c-2.76 0-5 2.24-5 5s2.24 5 5 5v29.4M-1169.97-467.92h-3.52" stroke="#333" fill="none"/><path d="M-951.88-346.02l-.46-.02h-.5v-.5h.96z" stroke="#333" stroke-width=".05" fill="#333"/><path d="M-1170-132.08h25.64a12 12 0 0 0 12-12v-71c-2.76 0-5-2.23-5-5 0-2.75 2.24-5 5-5v-28.38M-1169.97-132.08h-3.52" stroke="#333" fill="none"/><path d="M-1132.37-253.96h.5v.5h-.96v-.52zM-951.88-224.67l-1.87.3-2.24 1.64-.87 2.7.22 1.35 1.63 2.24 3.14 1.02v71.35l-.15 1.94-.46 1.9-.74 1.8-1.02 1.68-1.28 1.5-1.5 1.26-1.65 1.03-1.8.75-1.9.46-1.94.15H-1170v-.96h205.62l1.83-.14 1.75-.42 1.67-.7 1.54-.94 1.4-1.18 1.17-1.37.94-1.55.7-1.67.42-1.76.15-1.82v-70.63l-2.77-.9-1.95-2.67-.3-1.8 1.05-3.22 2.67-1.95 1.3-.2v-28h.95z" stroke="#333" stroke-width=".05" fill="#333"/><path d="M-1169.97-131.6h-3.52v-.96h3.53z" stroke="#333" stroke-width=".05" fill="#333"/><path d="M-952.37-253.96h.5v.5h-.96v-.52z" fill="#333"/><path stroke="#333" stroke-width=".05" fill="#333"/><path d="M-1284.72-374.96c0 24.88-30.28 45.04-67.64 45.04s-67.64-20.16-67.64-45.04 30.28-45.04 67.64-45.04 67.64 20.17 67.64 45.04z" stroke="#000" stroke-width="2" fill="#fff"/><use xlink:href="#d" transform="matrix(1,0,0,1,-1399.7074262001,-401.98391597209115) translate(12.973749999999995 23.46212890625)"/><use xlink:href="#g" transform="matrix(1,0,0,1,-1399.7074262001,-401.98391597209115) translate(18.155957031249997 43.716875)"/><path d="M-1464.72-374.96c0 24.88-30.28 45.04-67.64 45.04s-67.64-20.16-67.64-45.04 30.28-45.04 67.64-45.04 67.64 20.17 67.64 45.04z" stroke="#000" stroke-width="2" fill="#fff"/><use xlink:href="#h" transform="matrix(1,0,0,1,-1579.7074262001,-401.98391597209115) translate(10.60742675781249 23.46212890625)"/><use xlink:href="#g" transform="matrix(1,0,0,1,-1579.7074262001,-401.98391597209115) translate(18.155957031249997 43.716875)"/><path d="M-1180.22-132.08h-160.14a12 12 0 0 1-12-12v-184.34M-1180.23-132.08h3.5" stroke="#333" fill="none"/><path d="M-1352.37-328.92h.5v.5h-.96v-.52z" stroke="#333" stroke-width=".05" fill="#333"/><path d="M-1180.22-467.92h-340.14a12 12 0 0 0-12 12v34.42M-1180.23-467.92h3.5" stroke="#333" fill="none"/><path d="M-1531.88-420.98l-.46-.02h-.5v-.5h.96z" stroke="#333" stroke-width=".05" fill="#333"/><path d="M-424.72 25.04c0 24.88-30.28 45.04-67.64 45.04S-560 49.92-560 25.04-529.72-20-492.36-20s67.64 20.16 67.64 45.04z" stroke="#000" stroke-width="2" fill="#fff"/><use xlink:href="#i" transform="matrix(1,0,0,1,-539.7074262001,-1.983915972091154) translate(22.549389648437497 23.46212890625)"/><use xlink:href="#j" transform="matrix(1,0,0,1,-539.7074262001,-1.983915972091154) translate(7.006855468749997 43.716875)"/><path d="M-665.76 25.52h-37.46v-.95h37.46zm88.38 0h-21.58v-.95h21.58z" stroke="#333" stroke-width=".05" fill="#333"/><path d="M-703.2 25.52h-.53v-.95h.53z" fill="#333"/><path stroke="#333" stroke-width=".05" fill="#333"/><path d="M-562.62 25.04l-14.26 4.64V20.4z" fill="#333"/><path d="M-561.08 25.04l-16.28 5.3v-10.6zm-15.33 3.98l12.25-3.98-12.26-3.98z" stroke="#333" stroke-width=".05" fill="#333"/><use xlink:href="#k" transform="matrix(1,0,0,1,-665.7565249993551,14.285001736438783) translate(0.005000000000002558 17.22222222222222)"/><path d="M-1180.22-132.08h-340.14a12 12 0 0 1-12-12v-184.34M-1180.23-132.08h3.5" stroke="#333" fill="none"/><path d="M-1532.37-328.92h.5v.5h-.96v-.52z" stroke="#333" stroke-width=".05" fill="#333"/><path d="M-1107.46 25.04c0 24.88-30.3 45.04-67.64 45.04-37.36 0-67.65-20.16-67.65-45.04S-1212.45-20-1175.1-20c37.35 0 67.64 20.16 67.64 45.04z" stroke="#000" stroke-width="2" fill="#fff"/><use xlink:href="#e" transform="matrix(1,0,0,1,-1222.4548199565202,-1.983915972091154) translate(9.275092773437493 23.46212890625)"/><use xlink:href="#l" transform="matrix(1,0,0,1,-1222.4548199565202,-1.983915972091154) translate(27.944116210937498 43.716875)"/><path d="M-922.36 25.04c0 24.88-30.28 45.04-67.64 45.04s-67.64-20.16-67.64-45.04S-1027.36-20-990-20s67.64 20.16 67.64 45.04z" stroke="#000" stroke-width="2" fill="#fff"/><use xlink:href="#d" transform="matrix(1,0,0,1,-1037.3493388664333,-1.983915972091154) translate(12.973749999999995 23.46212890625)"/><use xlink:href="#l" transform="matrix(1,0,0,1,-1037.3493388664333,-1.983915972091154) translate(27.944116210937498 43.716875)"/><path d="M-704.72 25.04c0 24.88-30.28 45.04-67.64 45.04S-840 49.92-840 25.04-809.72-20-772.36-20s67.64 20.16 67.64 45.04z" stroke="#000" stroke-width="2" fill="#fff"/><use xlink:href="#m" transform="matrix(1,0,0,1,-819.7074262001,-1.983915972091154) translate(20.407846679687495 23.46212890625)"/><use xlink:href="#l" transform="matrix(1,0,0,1,-819.7074262001,-1.983915972091154) translate(27.944116210937498 43.716875)"/><path d="M-1175.1-466.9v80.96c-2.77 0-5 2.24-5 5s2.23 5 5 5v7.97a7.97 7.97 0 0 1-7.97 7.97H-1228a12 12 0 0 0-12 12v210.92c-2.76 0-5 2.24-5 5s2.24 5 5 5V-73a12 12 0 0 0 12 12h40.9a12 12 0 0 1 12 12v27.5M-1175.1-466.88v-3.5" stroke="#333" fill="none"/><path d="M-1174.63-20.98l-.46-.02h-.48v-.5h.95z" stroke="#333" stroke-width=".05" fill="#333"/><path d="M-1175.1-131.05V-21.5M-1175.1-131.04v-3.5" stroke="#333" fill="none"/><path d="M-1174.63-20.98l-.46-.02h-.48v-.5h.95z" stroke="#333" stroke-width=".05" fill="#333"/><path d="M-1170-132.08h168a12 12 0 0 1 12 12v98.58M-1169.97-132.08h-3.52" stroke="#333" fill="none"/><path d="M-989.52-20.98L-990-21h-.48v-.5h.96zM-771.88-37.38h-.95v-89.34h.95zm0-110.86h-.95v-105.22h.95z" stroke="#333" stroke-width=".05" fill="#333"/><path d="M-772.37-253.96h.5v.5h-.96v-.52z" fill="#333"/><path stroke="#333" stroke-width=".05" fill="#333"/><path d="M-772.36-22.62L-777-36.88h9.28z" fill="#333"/><path d="M-772.36-21.08l-5.3-16.28h10.6zm-3.98-15.33l3.98 12.24 3.98-12.25z" stroke="#333" stroke-width=".05" fill="#333"/><use xlink:href="#k" transform="matrix(1,0,0,1,-805.7565248336666,-148.23510336511737) translate(0.005000000000002558 17.22222222222222)"/><path d="M-981.98-186.66l1.93.15 1.9.45 1.8.75 1.68 1.02 1.5 1.27 1.26 1.48 1.02 1.67.75 1.8.45 1.92.15 1.93v37.46l-3.13 1.03-1.63 2.22-.2 1.36.87 2.7 2.24 1.63 1.88.3v68.22l.18.1.02 23.87h-.94l-.02-23.34-.2-.22v-67.82l-1.3-.2-2.66-1.96-1.05-3.2.3-1.8 1.95-2.68 2.77-.9v-36.75l-.14-1.82-.42-1.74-.7-1.67-.94-1.56-1.17-1.37-1.38-1.18-1.54-.95-1.67-.7-1.76-.4-1.82-.16h-11.8v-.96zm-100.6-37.04l-1.63 2.24-.23 1.35.88 2.7 2.24 1.62 1.86.3v17.28l.14 1.82.42 1.76.7 1.67.94 1.54 1.17 1.37 1.38 1.17 1.55.94 1.67.7 1.76.42 1.82.14h7.3v.95h-7.34l-1.93-.16-1.9-.46-1.8-.75-1.68-1.02-1.5-1.26-1.26-1.5-1.04-1.66-.74-1.8-.46-1.9-.15-1.94v-16.5l-1.3-.22-2.66-1.94-1.05-3.2.3-1.82 1.94-2.67 2.77-.92v-44.37h.96v45.07z" stroke="#333" stroke-width=".05" fill="#333"/><path d="M-1079.44-269.78h-.95v-.16l.96-.7z" fill="#333"/><path stroke="#333" stroke-width=".05" fill="#333"/><path d="M-969.8-20.55l-4.63-14.26h9.27z" fill="#333"/><path d="M-969.8-19l-5.28-16.3h10.58zm-3.97-15.34l3.98 12.26 4-12.26z" stroke="#333" stroke-width=".05" fill="#333"/><g><use xlink:href="#k" transform="matrix(1,0,0,1,-1060.6030245977474,-196.93869530326535) translate(-2.4393751718139356 17.22222222222222)"/></g><path d="M-1116.42-224.67l-1.86.3-2.24 1.64-.88 2.7.2 1.35 1.65 2.24 3.13 1.02v78.74l-1.86.3-2.24 1.64-.88 2.7.2 1.35 1.65 2.25 3.13 1.02v45.4l.15 1.83.42 1.76.7 1.67.94 1.54 1.16 1.38 1.38 1.17 1.54.95 1.67.7 1.76.4 1.83.16h57.98l1.94.15 1.9.45 1.82.75 1.66 1.03 1.5 1.28 1.27 1.5 1 1.66.76 1.8.45 1.9.17 1.94v47.74h-.95v-47.7l-.15-1.82-.42-1.76-.7-1.67-.93-1.54-1.18-1.38-1.38-1.17-1.54-.95-1.67-.7-1.76-.4-1.83-.16h-57.98l-1.94-.15-1.9-.45-1.82-.75-1.66-1.03-1.5-1.28-1.26-1.5-1.03-1.66-.76-1.8-.45-1.9-.17-1.94v-44.76l-2.77-.9-1.95-2.67-.28-1.82 1.05-3.2 2.67-1.96 1.3-.2v-77.25l-2.78-.9-1.95-2.67-.28-1.8 1.05-3.22 2.67-1.95 1.3-.2v-13.32h.94z" stroke="#333" stroke-width=".05" fill="#333"/><path d="M-1034.43-10.03l-.95.5v-.76h.95z" fill="#333"/><path stroke="#333" stroke-width=".05" fill="#333"/><path d="M-1112.26-239.3h-9.27l4.64-14.25z" fill="#333"/><path d="M-1111.6-238.8h-10.58l5.3-16.3zm-9.27-.96h7.96l-4-12.25z" stroke="#333" stroke-width=".05" fill="#333"/><g><use xlink:href="#k" transform="matrix(1,0,0,1,-1092.5376779769927,-95.51041666666667) translate(-13.3984375 17.22222222222222)"/></g><defs><path d="M763 24c-353 0-583-224-583-531v-983h190v968c0 214 149 370 393 370 243 0 391-156 391-370v-968h190v983c0 307-230 531-581 531" id="n"/><path d="M538 24C308 24 148-78 108-271l171-41c32 123 123 178 257 178 156 0 256-77 256-169 0-77-54-128-164-154l-186-44c-203-48-300-148-300-305 0-192 176-326 414-326 230 0 351 112 402 269l-163 42c-31-80-94-158-238-158-133 0-233 69-233 162 0 83 57 129 188 160l169 40c203 48 298 149 298 302 0 196-179 339-441 339" id="o"/><path d="M537 14c-226 0-379-139-379-422v-710h180v695c0 172 97 275 253 275 160 0 281-109 281-300v-670h181V0H879v-209C806-46 684 14 537 14" id="p"/><path d="M471 26C259 26 90-98 90-318c0-256 228-303 435-329 202-27 287-16 287-108 0-139-79-219-234-219-161 0-248 86-283 164l-173-57c86-203 278-265 451-265 150 0 419 46 419 395V0H815v-152h-12C765-73 660 26 471 26zm31-159c199 0 310-134 310-271v-155c-30 35-226 55-295 64-131 17-246 59-246 186 0 116 97 176 231 176zm-23-1131l140-294h201l-194 294H479" id="q"/><path d="M158 0v-1118h174v172h12c41-113 157-188 290-188 26 0 70 2 91 3v181c-11-2-60-10-108-10-161 0-279 109-279 260V0H158" id="r"/><path d="M158 0v-1118h180V0H158zm91-1301c-68 0-125-53-125-119s57-119 125-119c69 0 126 53 126 119s-57 119-126 119" id="s"/><path d="M613 24c-304 0-509-231-509-576 0-350 205-580 509-580 305 0 511 230 511 580 0 345-206 576-511 576zm0-161c226 0 329-195 329-415 0-222-103-419-329-419-223 0-326 196-326 419 0 220 103 415 326 415" id="t"/><g id="a"><use transform="matrix(0.007595486111111111,0,0,0.007595486111111111,0,0)" xlink:href="#n"/><use transform="matrix(0.007595486111111111,0,0,0.007595486111111111,11.575520833333334,0)" xlink:href="#o"/><use transform="matrix(0.007595486111111111,0,0,0.007595486111111111,19.786241319444443,0)" xlink:href="#p"/><use transform="matrix(0.007595486111111111,0,0,0.007595486111111111,28.984375,0)" xlink:href="#q"/><use transform="matrix(0.007595486111111111,0,0,0.007595486111111111,37.71918402777778,0)" xlink:href="#r"/><use transform="matrix(0.007595486111111111,0,0,0.007595486111111111,43.818359375,0)" xlink:href="#s"/><use transform="matrix(0.007595486111111111,0,0,0.007595486111111111,47.585720486111114,0)" xlink:href="#t"/></g><path d="M180 0v-1490h510c348 0 508 194 508 460 0 198-88 351-276 417L1256 0h-220L726-579c-117 2-238 0-356 1V0H180zm190-747h312c235 0 327-108 327-283 0-177-92-293-329-293H370v576" id="u"/><path d="M628 24c-324 0-524-230-524-574 0-343 198-582 503-582 237 0 487 146 487 559v75H286c9 234 145 362 343 362 132 0 231-58 273-172l174 48C1024-91 857 24 628 24zM287-650h624c-17-190-120-322-304-322-192 0-309 151-320 322" id="v"/><path d="M471 26C259 26 90-98 90-318c0-256 228-303 435-329 202-27 287-16 287-108 0-139-79-219-234-219-161 0-248 86-283 164l-173-57c86-203 278-265 451-265 150 0 419 46 419 395V0H815v-152h-12C765-73 660 26 471 26zm31-159c199 0 310-134 310-271v-155c-30 35-226 55-295 64-131 17-246 59-246 186 0 116 97 176 231 176" id="w"/><path d="M338-1490V0H158v-1490h180" id="x"/><path d="M126 0v-134l627-806v-11H146v-167h839v143L376-178v11h629V0H126" id="y"/><g id="b"><use transform="matrix(0.008173828125000001,0,0,0.008173828125000001,0,0)" xlink:href="#u"/><use transform="matrix(0.008173828125000001,0,0,0.008173828125000001,10.527890625000001,0)" xlink:href="#v"/><use transform="matrix(0.008173828125000001,0,0,0.008173828125000001,20.45091796875,0)" xlink:href="#w"/><use transform="matrix(0.008173828125000001,0,0,0.008173828125000001,29.850820312500005,0)" xlink:href="#x"/><use transform="matrix(0.008173828125000001,0,0,0.008173828125000001,33.90503906250001,0)" xlink:href="#s"/><use transform="matrix(0.008173828125000001,0,0,0.008173828125000001,37.95925781250001,0)" xlink:href="#y"/><use transform="matrix(0.008173828125000001,0,0,0.008173828125000001,47.203857421875014,0)" xlink:href="#w"/><use transform="matrix(0.008173828125000001,0,0,0.008173828125000001,56.603759765625014,0)" xlink:href="#r"/></g><path d="M158 418v-1536h174v179h20c37-59 106-193 324-193 279 0 474 222 474 576 0 356-194 580-473 580-213 0-288-135-325-197h-14v591H158zm492-555c209 0 317-186 317-421 0-232-105-413-317-413-206 0-314 166-314 413 0 249 111 421 314 421" id="z"/><path d="M598-1118v154H368v674c0 100 37 144 132 144 23 0 62-6 92-12L629-6c-37 13-88 20-134 20-193 0-307-107-307-290v-688H20v-154h168v-266h180v266h230" id="A"/><g id="c"><use transform="matrix(0.008173828125000001,0,0,0.008173828125000001,0,0)" xlink:href="#r"/><use transform="matrix(0.008173828125000001,0,0,0.008173828125000001,6.0241113281250005,0)" xlink:href="#v"/><use transform="matrix(0.008173828125000001,0,0,0.008173828125000001,15.783662109375001,0)" xlink:href="#z"/><use transform="matrix(0.008173828125000001,0,0,0.008173828125000001,26.033642578125004,0)" xlink:href="#t"/><use transform="matrix(0.008173828125000001,0,0,0.008173828125000001,36.071103515625005,0)" xlink:href="#r"/><use transform="matrix(0.008173828125000001,0,0,0.008173828125000001,42.6346875,0)" xlink:href="#A"/></g><path d="M52 0l541-1490h220L1361 0h-200l-149-416H398L254 0H52zm404-582h497c-103-290-145-390-251-756-108 377-145 460-246 756" id="B"/><g id="d"><use transform="matrix(0.008173828125000001,0,0,0.008173828125000001,0,0)" xlink:href="#B"/><use transform="matrix(0.008173828125000001,0,0,0.008173828125000001,11.222666015625002,0)" xlink:href="#A"/><use transform="matrix(0.008173828125000001,0,0,0.008173828125000001,16.699130859375003,0)" xlink:href="#p"/><use transform="matrix(0.008173828125000001,0,0,0.008173828125000001,26.597636718750003,0)" xlink:href="#w"/><use transform="matrix(0.008173828125000001,0,0,0.008173828125000001,35.9975390625,0)" xlink:href="#x"/><use transform="matrix(0.008173828125000001,0,0,0.008173828125000001,40.0517578125,0)" xlink:href="#s"/><use transform="matrix(0.008173828125000001,0,0,0.008173828125000001,44.105976562500004,0)" xlink:href="#y"/><use transform="matrix(0.008173828125000001,0,0,0.008173828125000001,53.350576171875005,0)" xlink:href="#w"/><use transform="matrix(0.008173828125000001,0,0,0.008173828125000001,62.750478515625005,0)" xlink:href="#r"/></g><path d="M783 20c-382 0-661-292-661-764 0-473 279-766 661-766 302 0 548 182 601 489h-190c-42-204-217-313-411-313-268 0-476 208-476 590 0 381 209 588 476 588 195 0 369-110 411-313h190c-52 303-296 489-601 489" id="C"/><path d="M338-670V0H158v-1118h173l1 207c72-158 192-221 342-221 226 0 378 139 378 422V0H872v-695c0-172-96-275-252-275-161 0-282 109-282 300" id="D"/><g id="e"><use transform="matrix(0.008173828125000001,0,0,0.008173828125000001,0,0)" xlink:href="#C"/><use transform="matrix(0.008173828125000001,0,0,0.008173828125000001,12.228046875000002,0)" xlink:href="#t"/><use transform="matrix(0.008173828125000001,0,0,0.008173828125000001,22.265507812500008,0)" xlink:href="#D"/><use transform="matrix(0.008173828125000001,0,0,0.008173828125000001,32.15583984375,0)" xlink:href="#o"/><use transform="matrix(0.008173828125000001,0,0,0.008173828125000001,40.991748046875,0)" xlink:href="#p"/><use transform="matrix(0.008173828125000001,0,0,0.008173828125000001,50.89025390625,0)" xlink:href="#x"/><use transform="matrix(0.008173828125000001,0,0,0.008173828125000001,55.189687500000005,0)" xlink:href="#A"/><use transform="matrix(0.008173828125000001,0,0,0.008173828125000001,60.747890625000004,0)" xlink:href="#w"/><use transform="matrix(0.008173828125000001,0,0,0.008173828125000001,70.14779296875001,0)" xlink:href="#r"/></g><path d="M180 0v-1490h270l367 940c28 72 75 218 110 339 35-117 81-264 110-339l362-940h271V0h-187c2-448-5-837 7-1287-157 497-311 829-483 1287H842C666-458 514-784 354-1284c12 438 5 843 7 1284H180" id="E"/><path d="M577 24c-279 0-473-224-473-580 0-354 195-576 474-576 218 0 287 134 324 193h14v-551h180V0H922v-173h-20C865-111 790 24 577 24zm27-161c203 0 314-172 314-421 0-247-108-413-314-413-212 0-317 181-317 413 0 235 108 421 317 421" id="F"/><g id="f"><use transform="matrix(0.007595486111111111,0,0,0.007595486111111111,0,0)" xlink:href="#E"/><use transform="matrix(0.007595486111111111,0,0,0.007595486111111111,14.051649305555555,0)" xlink:href="#t"/><use transform="matrix(0.007595486111111111,0,0,0.007595486111111111,23.37890625,0)" xlink:href="#F"/><use transform="matrix(0.007595486111111111,0,0,0.007595486111111111,32.903645833333336,0)" xlink:href="#v"/><use transform="matrix(0.007595486111111111,0,0,0.007595486111111111,41.97265625,0)" xlink:href="#r"/><use transform="matrix(0.007595486111111111,0,0,0.007595486111111111,47.828776041666664,0)" xlink:href="#w"/><use transform="matrix(0.007595486111111111,0,0,0.007595486111111111,56.56358506944444,0)" xlink:href="#F"/><use transform="matrix(0.007595486111111111,0,0,0.007595486111111111,66.08832465277777,0)" xlink:href="#t"/><use transform="matrix(0.007595486111111111,0,0,0.007595486111111111,75.41558159722221,0)" xlink:href="#r"/></g><g id="g"><use transform="matrix(0.008173828125000001,0,0,0.008173828125000001,0,0)" xlink:href="#p"/><use transform="matrix(0.008173828125000001,0,0,0.008173828125000001,9.898505859375001,0)" xlink:href="#o"/><use transform="matrix(0.008173828125000001,0,0,0.008173828125000001,18.7344140625,0)" xlink:href="#p"/><use transform="matrix(0.008173828125000001,0,0,0.008173828125000001,28.632919921875,0)" xlink:href="#q"/><use transform="matrix(0.008173828125000001,0,0,0.008173828125000001,38.032822265625,0)" xlink:href="#r"/><use transform="matrix(0.008173828125000001,0,0,0.008173828125000001,44.59640625,0)" xlink:href="#s"/><use transform="matrix(0.008173828125000001,0,0,0.008173828125000001,48.650625000000005,0)" xlink:href="#t"/></g><path d="M613 24c-304 0-509-231-509-576 0-350 205-580 509-580 216 0 392 114 453 309l-173 49c-33-115-133-197-280-197-223 0-326 196-326 419 0 220 103 415 326 415 150 0 252-85 285-206l172 49C1010-95 832 24 613 24" id="G"/><g id="h"><use transform="matrix(0.008173828125000001,0,0,0.008173828125000001,0,0)" xlink:href="#G"/><use transform="matrix(0.008173828125000001,0,0,0.008173828125000001,9.563378906250001,0)" xlink:href="#t"/><use transform="matrix(0.008173828125000001,0,0,0.008173828125000001,19.600839843750002,0)" xlink:href="#D"/><use transform="matrix(0.008173828125000001,0,0,0.008173828125000001,29.491171875000003,0)" xlink:href="#o"/><use transform="matrix(0.008173828125000001,0,0,0.008173828125000001,38.32708007812501,0)" xlink:href="#p"/><use transform="matrix(0.008173828125000001,0,0,0.008173828125000001,48.22558593750001,0)" xlink:href="#x"/><use transform="matrix(0.008173828125000001,0,0,0.008173828125000001,52.52501953125001,0)" xlink:href="#A"/><use transform="matrix(0.008173828125000001,0,0,0.008173828125000001,58.08322265625001,0)" xlink:href="#w"/><use transform="matrix(0.008173828125000001,0,0,0.008173828125000001,67.483125,0)" xlink:href="#r"/></g><path d="M370-1490V0H180v-1490h190" id="H"/><g id="i"><use transform="matrix(0.008173828125000001,0,0,0.008173828125000001,0,0)" xlink:href="#H"/><use transform="matrix(0.008173828125000001,0,0,0.008173828125000001,4.495605468750001,0)" xlink:href="#D"/><use transform="matrix(0.008173828125000001,0,0,0.008173828125000001,14.3859375,0)" xlink:href="#o"/><use transform="matrix(0.008173828125000001,0,0,0.008173828125000001,23.221845703125002,0)" xlink:href="#v"/><use transform="matrix(0.008173828125000001,0,0,0.008173828125000001,32.981396484375004,0)" xlink:href="#r"/><use transform="matrix(0.008173828125000001,0,0,0.008173828125000001,39.54498046875,0)" xlink:href="#s"/><use transform="matrix(0.008173828125000001,0,0,0.008173828125000001,43.59919921875,0)" xlink:href="#r"/></g><g id="j"><use transform="matrix(0.008173828125000001,0,0,0.008173828125000001,0,0)" xlink:href="#x"/><use transform="matrix(0.008173828125000001,0,0,0.008173828125000001,4.05421875,0)" xlink:href="#t"/><use transform="matrix(0.008173828125000001,0,0,0.008173828125000001,14.091679687500001,0)" xlink:href="#G"/><use transform="matrix(0.008173828125000001,0,0,0.008173828125000001,23.81853515625,0)" xlink:href="#w"/><use transform="matrix(0.008173828125000001,0,0,0.008173828125000001,33.2184375,0)" xlink:href="#x"/><use transform="matrix(0.008173828125000001,0,0,0.008173828125000001,37.27265625,0)" xlink:href="#s"/><use transform="matrix(0.008173828125000001,0,0,0.008173828125000001,41.326874999999994,0)" xlink:href="#F"/><use transform="matrix(0.008173828125000001,0,0,0.008173828125000001,51.576855468750004,0)" xlink:href="#w"/><use transform="matrix(0.008173828125000001,0,0,0.008173828125000001,60.976757812500004,0)" xlink:href="#F"/><use transform="matrix(0.008173828125000001,0,0,0.008173828125000001,71.22673828125001,0)" xlink:href="#v"/></g><path d="M65 0l393-574-370-544h210c88 136 192 297 267 435 67-142 176-302 264-435h206L661-564 1053 0H844c-94-144-206-310-287-458C484-308 366-142 273 0H65" id="I"/><g id="k"><use transform="matrix(0.008680555555555556,0,0,0.008680555555555556,0,0)" xlink:href="#v"/><use transform="matrix(0.008680555555555556,0,0,0.008680555555555556,9.965277777777779,0)" xlink:href="#I"/><use transform="matrix(0.008680555555555556,0,0,0.008680555555555556,20.01736111111111,0)" xlink:href="#A"/><use transform="matrix(0.008680555555555556,0,0,0.008680555555555556,25.659722222222225,0)" xlink:href="#v"/><use transform="matrix(0.008680555555555556,0,0,0.008680555555555556,36.02430555555556,0)" xlink:href="#D"/><use transform="matrix(0.008680555555555556,0,0,0.008680555555555556,46.52777777777778,0)" xlink:href="#F"/><use transform="matrix(0.008680555555555556,0,0,0.008680555555555556,57.413194444444436,0)" xlink:href="#o"/></g><path d="M678-1118v154H420V0H240v-964H20v-154h220v-149c0-194 155-293 318-293 85 0 141 18 168 30l-50 154c-19-6-47-17-97-17-111 0-159 58-159 166v109h258" id="J"/><path d="M338-670V0H158v-1490h180v566c73-149 190-208 336-208 226 0 379 139 379 422V0H872v-695c0-172-96-275-252-275-161 0-282 109-282 300" id="K"/><g id="l"><use transform="matrix(0.008173828125000001,0,0,0.008173828125000001,0,0)" xlink:href="#J"/><use transform="matrix(0.008173828125000001,0,0,0.008173828125000001,6.195761718750001,0)" xlink:href="#s"/><use transform="matrix(0.008173828125000001,0,0,0.008173828125000001,10.249980468750001,0)" xlink:href="#G"/><use transform="matrix(0.008173828125000001,0,0,0.008173828125000001,19.813359375000005,0)" xlink:href="#K"/><use transform="matrix(0.008173828125000001,0,0,0.008173828125000001,29.711865234375004,0)" xlink:href="#w"/></g><path d="M180 0v-1490h190v1322h690V0H180" id="L"/><path d="M502 418V313h118c73 0 98-17 98-66s-25-65-98-65h-82l21-161C285-4 104-228 104-552c0-350 205-580 509-580 216 0 392 114 453 309l-173 49c-33-115-133-197-280-197-223 0-326 196-326 419 0 220 103 415 326 415 150 0 252-85 285-206l172 49C1015-110 859 5 663 22v64c130 5 189 54 189 162 0 118-71 170-231 170H502" id="M"/><g id="m"><use transform="matrix(0.008173828125000001,0,0,0.008173828125000001,0,0)" xlink:href="#L"/><use transform="matrix(0.008173828125000001,0,0,0.008173828125000001,9.465292968750001,0)" xlink:href="#w"/><use transform="matrix(0.008173828125000001,0,0,0.008173828125000001,18.865195312500003,0)" xlink:href="#D"/><use transform="matrix(0.008173828125000001,0,0,0.008173828125000001,28.755527343750003,0)" xlink:href="#M"/><use transform="matrix(0.008173828125000001,0,0,0.008173828125000001,38.482382812500006,0)" xlink:href="#w"/><use transform="matrix(0.008173828125000001,0,0,0.008173828125000001,47.882285156250006,0)" xlink:href="#r"/></g></defs></g></svg>