<svg xmlns="http://www.w3.org/2000/svg" xmlns:xlink="http://www.w3.org/1999/xlink" xmlns:lucid="lucid" width="442" height="342"><g transform="translate(61 461)" lucid:page-tab-id=".Q4MUjXso07N"><path d="M-60-452a8 8 0 0 1 8-8h424a8 8 0 0 1 8 8v324a8 8 0 0 1-8 8H-52a8 8 0 0 1-8-8z" stroke="#000" stroke-width="2" fill-opacity="0"/><use xlink:href="#a" transform="matrix(1,0,0,1,-52,-452) translate(152.37109375 38.75)"/><path d="M-20-372a8 8 0 0 1 8-8h144a8 8 0 0 1 8 8v64a8 8 0 0 1-8 8H-12a8 8 0 0 1-8-8z" stroke="#000" stroke-width="2" fill="#e3fae3"/><use xlink:href="#b" transform="matrix(1,0,0,1,0,-380) translate(27.48952907986112 48.16460503472222)"/><path d="M180-372a8 8 0 0 1 8-8h144a8 8 0 0 1 8 8v64a8 8 0 0 1-8 8H188a8 8 0 0 1-8-8z" stroke="#000" stroke-width="2" fill="#fcfcca"/><use xlink:href="#c" transform="matrix(1,0,0,1,200,-380) translate(7.543782552083343 48.16460503472222)"/><path d="M-20-252a8 8 0 0 1 8-8h144a8 8 0 0 1 8 8v64a8 8 0 0 1-8 8H-12a8 8 0 0 1-8-8z" stroke="#000" stroke-width="2" fill="#ced4db"/><use xlink:href="#d" transform="matrix(1,0,0,1,0,-260) translate(3.297092013888907 48.16460503472222)"/><path d="M180-252a8 8 0 0 1 8-8h144a8 8 0 0 1 8 8v64a8 8 0 0 1-8 8H188a8 8 0 0 1-8-8z" stroke="#000" stroke-width="2" fill="#edf5ff"/><use xlink:href="#e" transform="matrix(1,0,0,1,200,-260) translate(50.301106770833336 48.16460503472222)"/><defs><path d="M657 26c-323 0-524-166-541-416h195c15 169 171 246 346 246 202 0 356-106 356-265 5-203-294-238-475-293-239-73-380-191-380-389 0-252 224-419 512-419 294 0 499 171 508 396H992c-17-145-151-228-328-228-193 0-321 102-321 242 0 156 175 211 284 241l149 41c160 44 422 134 422 412 0 244-197 432-541 432" id="f"/><path d="M598-1118v154H368v674c0 100 37 144 132 144 23 0 62-6 92-12L629-6c-37 13-88 20-134 20-193 0-307-107-307-290v-688H20v-154h168v-266h180v266h230" id="g"/><path d="M471 26C259 26 90-98 90-318c0-256 228-303 435-329 202-27 287-16 287-108 0-139-79-219-234-219-161 0-248 86-283 164l-173-57c86-203 278-265 451-265 150 0 419 46 419 395V0H815v-152h-12C765-73 660 26 471 26zm31-159c199 0 310-134 310-271v-155c-30 35-226 55-295 64-131 17-246 59-246 186 0 116 97 176 231 176" id="h"/><path d="M537 14c-226 0-379-139-379-422v-710h180v695c0 172 97 275 253 275 160 0 281-109 281-300v-670h181V0H879v-209C806-46 684 14 537 14" id="i"/><path d="M538 24C308 24 148-78 108-271l171-41c32 123 123 178 257 178 156 0 256-77 256-169 0-77-54-128-164-154l-186-44c-203-48-300-148-300-305 0-192 176-326 414-326 230 0 351 112 402 269l-163 42c-31-80-94-158-238-158-133 0-233 69-233 162 0 83 57 129 188 160l169 40c203 48 298 149 298 302 0 196-179 339-441 339" id="j"/><g id="a"><use transform="matrix(0.01953125,0,0,0.01953125,0,0)" xlink:href="#f"/><use transform="matrix(0.01953125,0,0,0.01953125,25.6640625,0)" xlink:href="#g"/><use transform="matrix(0.01953125,0,0,0.01953125,38.9453125,0)" xlink:href="#h"/><use transform="matrix(0.01953125,0,0,0.01953125,61.40625,0)" xlink:href="#g"/><use transform="matrix(0.01953125,0,0,0.01953125,74.4921875,0)" xlink:href="#i"/><use transform="matrix(0.01953125,0,0,0.01953125,98.14453125,0)" xlink:href="#j"/></g><path fill="#008a0e" d="M600 0L52-1490h200c166 485 304 806 458 1336 156-533 285-846 449-1336h202L819 0H600" id="k"/><path fill="#008a0e" d="M471 26C259 26 90-98 90-318c0-256 228-303 435-329 202-27 287-16 287-108 0-139-79-219-234-219-161 0-248 86-283 164l-173-57c86-203 278-265 451-265 150 0 419 46 419 395V0H815v-152h-12C765-73 660 26 471 26zm31-159c199 0 310-134 310-271v-155c-30 35-226 55-295 64-131 17-246 59-246 186 0 116 97 176 231 176zm-23-1131l140-294h201l-194 294H479" id="l"/><path fill="#008a0e" d="M338-1490V0H158v-1490h180" id="m"/><path fill="#008a0e" d="M158 0v-1118h180V0H158zm91-1301c-68 0-125-53-125-119s57-119 125-119c69 0 126 53 126 119s-57 119-126 119" id="n"/><path fill="#008a0e" d="M577 24c-279 0-473-224-473-580 0-354 195-576 474-576 218 0 287 134 324 193h14v-551h180V0H922v-173h-20C865-111 790 24 577 24zm27-161c203 0 314-172 314-421 0-247-108-413-314-413-212 0-317 181-317 413 0 235 108 421 317 421" id="o"/><path fill="#008a0e" d="M613 24c-304 0-509-231-509-576 0-350 205-580 509-580 305 0 511 230 511 580 0 345-206 576-511 576zm0-161c226 0 329-195 329-415 0-222-103-419-329-419-223 0-326 196-326 419 0 220 103 415 326 415" id="p"/><g id="b"><use transform="matrix(0.010959201388888886,0,0,0.010959201388888886,0,0)" xlink:href="#k"/><use transform="matrix(0.010959201388888886,0,0,0.010959201388888886,14.345594618055552,0)" xlink:href="#l"/><use transform="matrix(0.010959201388888886,0,0,0.010959201388888886,26.94867621527777,0)" xlink:href="#m"/><use transform="matrix(0.010959201388888886,0,0,0.010959201388888886,32.38444010416666,0)" xlink:href="#n"/><use transform="matrix(0.010959201388888886,0,0,0.010959201388888886,37.82020399305554,0)" xlink:href="#o"/><use transform="matrix(0.010959201388888886,0,0,0.010959201388888886,51.56304253472221,0)" xlink:href="#p"/></g><path fill="#cc4e00" d="M657 26c-323 0-524-166-541-416h195c15 169 171 246 346 246 202 0 356-106 356-265 5-203-294-238-475-293-239-73-380-191-380-389 0-252 224-419 512-419 294 0 499 171 508 396H992c-17-145-151-228-328-228-193 0-321 102-321 242 0 156 175 211 284 241l149 41c160 44 422 134 422 412 0 244-197 432-541 432" id="q"/><path fill="#cc4e00" d="M537 14c-226 0-379-139-379-422v-710h180v695c0 172 97 275 253 275 160 0 281-109 281-300v-670h181V0H879v-209C806-46 684 14 537 14" id="r"/><path fill="#cc4e00" d="M538 24C308 24 148-78 108-271l171-41c32 123 123 178 257 178 156 0 256-77 256-169 0-77-54-128-164-154l-186-44c-203-48-300-148-300-305 0-192 176-326 414-326 230 0 351 112 402 269l-163 42c-31-80-94-158-238-158-133 0-233 69-233 162 0 83 57 129 188 160l169 40c203 48 298 149 298 302 0 196-179 339-441 339" id="s"/><path fill="#cc4e00" d="M158 418v-1536h174v179h20c37-59 106-193 324-193 279 0 474 222 474 576 0 356-194 580-473 580-213 0-288-135-325-197h-14v591H158zm492-555c209 0 317-186 317-421 0-232-105-413-317-413-206 0-314 166-314 413 0 249 111 421 314 421" id="t"/><path fill="#cc4e00" d="M628 24c-324 0-524-230-524-574 0-343 198-582 503-582 237 0 487 146 487 559v75H286c9 234 145 362 343 362 132 0 231-58 273-172l174 48C1024-91 857 24 628 24zM287-650h624c-17-190-120-322-304-322-192 0-309 151-320 322" id="u"/><path fill="#cc4e00" d="M338-670V0H158v-1118h173l1 207c72-158 192-221 342-221 226 0 378 139 378 422V0H872v-695c0-172-96-275-252-275-161 0-282 109-282 300" id="v"/><path fill="#cc4e00" d="M613 24c-304 0-509-231-509-576 0-350 205-580 509-580 305 0 511 230 511 580 0 345-206 576-511 576zm0-161c226 0 329-195 329-415 0-222-103-419-329-419-223 0-326 196-326 419 0 220 103 415 326 415" id="w"/><g id="c"><use transform="matrix(0.010959201388888886,0,0,0.010959201388888886,0,0)" xlink:href="#q"/><use transform="matrix(0.010959201388888886,0,0,0.010959201388888886,14.400390624999996,0)" xlink:href="#r"/><use transform="matrix(0.010959201388888886,0,0,0.010959201388888886,27.67198350694444,0)" xlink:href="#s"/><use transform="matrix(0.010959201388888886,0,0,0.010959201388888886,39.51888020833332,0)" xlink:href="#t"/><use transform="matrix(0.010959201388888886,0,0,0.010959201388888886,53.261718749999986,0)" xlink:href="#u"/><use transform="matrix(0.010959201388888886,0,0,0.010959201388888886,66.34700520833331,0)" xlink:href="#v"/><use transform="matrix(0.010959201388888886,0,0,0.010959201388888886,79.60763888888887,0)" xlink:href="#s"/><use transform="matrix(0.010959201388888886,0,0,0.010959201388888886,91.45453559027776,0)" xlink:href="#w"/></g><path fill="#3a414a" d="M783 20c-382 0-661-292-661-764 0-473 279-766 661-766 302 0 548 182 601 489h-190c-42-204-217-313-411-313-268 0-476 208-476 590 0 381 209 588 476 588 195 0 369-110 411-313h190c-52 303-296 489-601 489" id="x"/><path fill="#3a414a" d="M471 26C259 26 90-98 90-318c0-256 228-303 435-329 202-27 287-16 287-108 0-139-79-219-234-219-161 0-248 86-283 164l-173-57c86-203 278-265 451-265 150 0 419 46 419 395V0H815v-152h-12C765-73 660 26 471 26zm31-159c199 0 310-134 310-271v-155c-30 35-226 55-295 64-131 17-246 59-246 186 0 116 97 176 231 176" id="y"/><path fill="#3a414a" d="M338-670V0H158v-1118h173l1 207c72-158 192-221 342-221 226 0 378 139 378 422V0H872v-695c0-172-96-275-252-275-161 0-282 109-282 300" id="z"/><path fill="#3a414a" d="M613 24c-304 0-509-231-509-576 0-350 205-580 509-580 216 0 392 114 453 309l-173 49c-33-115-133-197-280-197-223 0-326 196-326 419 0 220 103 415 326 415 150 0 252-85 285-206l172 49C1010-95 832 24 613 24" id="A"/><path fill="#3a414a" d="M628 24c-324 0-524-230-524-574 0-343 198-582 503-582 237 0 487 146 487 559v75H286c9 234 145 362 343 362 132 0 231-58 273-172l174 48C1024-91 857 24 628 24zM287-650h624c-17-190-120-322-304-322-192 0-309 151-320 322" id="B"/><path fill="#3a414a" d="M338-1490V0H158v-1490h180" id="C"/><path fill="#3a414a" d="M577 24c-279 0-473-224-473-580 0-354 195-576 474-576 218 0 287 134 324 193h14v-551h180V0H922v-173h-20C865-111 790 24 577 24zm27-161c203 0 314-172 314-421 0-247-108-413-314-413-212 0-317 181-317 413 0 235 108 421 317 421" id="D"/><path fill="#3a414a" d="M613 24c-304 0-509-231-509-576 0-350 205-580 509-580 305 0 511 230 511 580 0 345-206 576-511 576zm0-161c226 0 329-195 329-415 0-222-103-419-329-419-223 0-326 196-326 419 0 220 103 415 326 415" id="E"/><g id="d"><use transform="matrix(0.010959201388888886,0,0,0.010959201388888886,0,0)" xlink:href="#x"/><use transform="matrix(0.010959201388888886,0,0,0.010959201388888886,16.394965277777775,0)" xlink:href="#y"/><use transform="matrix(0.010959201388888886,0,0,0.010959201388888886,28.998046874999993,0)" xlink:href="#z"/><use transform="matrix(0.010959201388888886,0,0,0.010959201388888886,42.25868055555554,0)" xlink:href="#A"/><use transform="matrix(0.010959201388888886,0,0,0.010959201388888886,55.08094618055554,0)" xlink:href="#B"/><use transform="matrix(0.010959201388888886,0,0,0.010959201388888886,68.16623263888887,0)" xlink:href="#C"/><use transform="matrix(0.010959201388888886,0,0,0.010959201388888886,73.60199652777776,0)" xlink:href="#y"/><use transform="matrix(0.010959201388888886,0,0,0.010959201388888886,86.20507812499997,0)" xlink:href="#D"/><use transform="matrix(0.010959201388888886,0,0,0.010959201388888886,99.94791666666663,0)" xlink:href="#E"/></g><path fill="#1071e5" d="M295 13c-75 0-135-60-135-135s60-135 135-135 135 60 135 135S370 13 295 13" id="F"/><g id="e"><use transform="matrix(0.010959201388888886,0,0,0.010959201388888886,0,0)" xlink:href="#F"/><use transform="matrix(0.010959201388888886,0,0,0.010959201388888886,6.465928819444443,0)" xlink:href="#F"/><use transform="matrix(0.010959201388888886,0,0,0.010959201388888886,12.931857638888886,0)" xlink:href="#F"/></g></defs></g></svg>