<svg xmlns="http://www.w3.org/2000/svg" xmlns:xlink="http://www.w3.org/1999/xlink" xmlns:lucid="lucid" width="210.04" height="210.04"><g transform="translate(421 481)" lucid:page-tab-id=".Q4MUjXso07N"><path d="M-211.96-375.98c0 57.45-46.57 104.02-104.02 104.02-57.45 0-104.02-46.57-104.02-104.02C-420-433.43-373.43-480-315.98-480c57.45 0 104.02 46.57 104.02 104.02z" stroke="#4c535d" stroke-width="2" fill="#fff"/><path d="M-315.98-454.6c-22.6 0-41 15.96-41 35.52 0 15.6 12.08 29.64 29.37 33.96 2.88.72 5.1 3.12 5.85 6l5.77 24.48 5.76-24.48c.75-2.88 2.98-5.28 5.86-6 17.3-4.32 29.4-18.36 29.4-33.96 0-19.56-18.42-35.52-41.02-35.52m0 114.6c-1.3 0-2.33-.84-2.7-2.16l-8.37-35.64c-.28-.96-.93-1.8-1.86-2.04-19.82-5.04-33.58-21.12-33.58-39.24 0-22.56 20.83-40.92 46.5-40.92s46.5 18.36 46.5 40.92c0 18.12-13.77 34.2-33.57 39.24-.84.24-1.6 1.08-1.87 2.04l-8.37 35.64c-.26 1.32-1.38 2.16-2.68 2.16m0-92.76c-7.53 0-13.67 6.12-13.67 13.68s6.13 13.68 13.67 13.68c7.53 0 13.67-6.12 13.67-13.68s-6.15-13.68-13.68-13.68m0 32.76c-10.6 0-19.16-8.52-19.16-19.08 0-10.56 8.56-19.08 19.16-19.08s19.16 8.52 19.16 19.08c0 10.56-8.56 19.08-19.16 19.08" stroke="#000" stroke-opacity="0" fill="#dd344c"/><use xlink:href="#a" transform="matrix(1,0,0,1,-455.48180532274733,-331) translate(81.58062065972223 21.74305555555555)"/><defs><path d="M180 0v-1490h190v1322h690V0H180" id="b"/><path d="M613 24c-304 0-509-231-509-576 0-350 205-580 509-580 305 0 511 230 511 580 0 345-206 576-511 576zm0-161c226 0 329-195 329-415 0-222-103-419-329-419-223 0-326 196-326 419 0 220 103 415 326 415" id="c"/><path d="M613 24c-304 0-509-231-509-576 0-350 205-580 509-580 216 0 392 114 453 309l-173 49c-33-115-133-197-280-197-223 0-326 196-326 419 0 220 103 415 326 415 150 0 252-85 285-206l172 49C1010-95 832 24 613 24" id="d"/><path d="M471 26C259 26 90-98 90-318c0-256 228-303 435-329 202-27 287-16 287-108 0-139-79-219-234-219-161 0-248 86-283 164l-173-57c86-203 278-265 451-265 150 0 419 46 419 395V0H815v-152h-12C765-73 660 26 471 26zm31-159c199 0 310-134 310-271v-155c-30 35-226 55-295 64-131 17-246 59-246 186 0 116 97 176 231 176" id="e"/><path d="M338-1490V0H158v-1490h180" id="f"/><path d="M158 0v-1118h180V0H158zm91-1301c-68 0-125-53-125-119s57-119 125-119c69 0 126 53 126 119s-57 119-126 119" id="g"/><path d="M577 24c-279 0-473-224-473-580 0-354 195-576 474-576 218 0 287 134 324 193h14v-551h180V0H922v-173h-20C865-111 790 24 577 24zm27-161c203 0 314-172 314-421 0-247-108-413-314-413-212 0-317 181-317 413 0 235 108 421 317 421" id="h"/><path d="M628 24c-324 0-524-230-524-574 0-343 198-582 503-582 237 0 487 146 487 559v75H286c9 234 145 362 343 362 132 0 231-58 273-172l174 48C1024-91 857 24 628 24zM287-650h624c-17-190-120-322-304-322-192 0-309 151-320 322" id="i"/><g id="a"><use transform="matrix(0.010959201388888886,0,0,0.010959201388888886,0,0)" xlink:href="#b"/><use transform="matrix(0.010959201388888886,0,0,0.010959201388888886,12.69075520833333,0)" xlink:href="#c"/><use transform="matrix(0.010959201388888886,0,0,0.010959201388888886,26.148654513888882,0)" xlink:href="#d"/><use transform="matrix(0.010959201388888886,0,0,0.010959201388888886,39.19010416666666,0)" xlink:href="#e"/><use transform="matrix(0.010959201388888886,0,0,0.010959201388888886,51.79318576388888,0)" xlink:href="#f"/><use transform="matrix(0.010959201388888886,0,0,0.010959201388888886,57.228949652777764,0)" xlink:href="#g"/><use transform="matrix(0.010959201388888886,0,0,0.010959201388888886,62.66471354166665,0)" xlink:href="#h"/><use transform="matrix(0.010959201388888886,0,0,0.010959201388888886,76.40755208333331,0)" xlink:href="#e"/><use transform="matrix(0.010959201388888886,0,0,0.010959201388888886,89.01063368055553,0)" xlink:href="#h"/><use transform="matrix(0.010959201388888886,0,0,0.010959201388888886,102.7534722222222,0)" xlink:href="#i"/></g></defs></g></svg>