<svg xmlns="http://www.w3.org/2000/svg" xmlns:xlink="http://www.w3.org/1999/xlink" xmlns:lucid="lucid" width="802.48" height="802.48"><g transform="translate(161 321)" lucid:page-tab-id=".Q4MUjXso07N"><path d="M640.48 80.24c0 221.04-179.2 400.24-400.24 400.24C19.2 480.48-160 301.28-160 80.24-160-140.8 19.2-320 240.24-320c221.04 0 400.24 179.2 400.24 400.24z" stroke="#000" stroke-width="2" fill="#fff"/><path d="M-40-172a8 8 0 0 1 8-8h458.3a8 8 0 0 1 8 8v32.4a8 8 0 0 1-8 8H-32a8 8 0 0 1-8-8z" fill="none"/><use xlink:href="#a" transform="matrix(1,0,0,1,-40,-180) translate(0 39.05078125)"/><use xlink:href="#b" transform="matrix(1,0,0,1,-40,-180) translate(206.66015625 39.05078125)"/><use xlink:href="#c" transform="matrix(1,0,0,1,-40,-180) translate(266.38671875 39.05078125)"/><path d="M563.5 185.18c0 131.45-106.58 238-238.02 238-131.45 0-238-106.55-238-238s106.55-238 238-238c131.44 0 238 106.55 238 238z" stroke="#000" stroke-width="2" fill="#fff"/><path d="M122.16 168a8 8 0 0 1 8-8H520.8a8 8 0 0 1 8 8v32.4a8 8 0 0 1-8 8H130.15a8 8 0 0 1-8-8z" fill="none"/><g><use xlink:href="#a" transform="matrix(1,0,0,1,122.15976585417309,160) translate(0 39.05078125)"/><use xlink:href="#b" transform="matrix(1,0,0,1,122.15976585417309,160) translate(206.66015625 39.05078125)"/><use xlink:href="#d" transform="matrix(1,0,0,1,122.15976585417309,160) translate(266.38671875 39.05078125)"/></g><defs><path d="M180 0v-1490h510c348 0 508 209 508 474 0 266-160 477-507 477H370V0H180zm190-706h312c236 0 327-133 327-310 0-176-91-307-329-307H370v617" id="e"/><path d="M158 0v-1118h174v172h12c41-113 157-188 290-188 26 0 70 2 91 3v181c-11-2-60-10-108-10-161 0-279 109-279 260V0H158" id="f"/><path d="M158 0v-1118h180V0H158zm91-1301c-68 0-125-53-125-119s57-119 125-119c69 0 126 53 126 119s-57 119-126 119" id="g"/><path d="M481 0L54-1118h197c107 314 236 620 325 951 87-331 217-637 324-951h197L670 0H481" id="h"/><path d="M338-1490V0H158v-1490h180" id="i"/><path d="M628 24c-324 0-524-230-524-574 0-343 198-582 503-582 237 0 487 146 487 559v75H286c9 234 145 362 343 362 132 0 231-58 273-172l174 48C1024-91 857 24 628 24zM287-650h624c-17-190-120-322-304-322-192 0-309 151-320 322zm237-614l140-294h201l-194 294H524" id="j"/><path d="M611 442c-248 0-391-105-460-228l146-94c47 65 117 165 314 165 178 0 307-82 307-266v-224h-17C863-141 792-18 576-18c-268 0-472-195-472-546 0-346 197-568 476-568 216 0 288 133 326 193h17v-179h175V29c0 289-215 413-487 413zm-5-620c203 0 314-146 314-390 0-237-108-403-314-403-213 0-319 180-319 403 0 230 109 390 319 390" id="k"/><path d="M613 24c-304 0-509-231-509-576 0-350 205-580 509-580 305 0 511 230 511 580 0 345-206 576-511 576zm0-161c226 0 329-195 329-415 0-222-103-419-329-419-223 0-326 196-326 419 0 220 103 415 326 415" id="l"/><path d="M538 24C308 24 148-78 108-271l171-41c32 123 123 178 257 178 156 0 256-77 256-169 0-77-54-128-164-154l-186-44c-203-48-300-148-300-305 0-192 176-326 414-326 230 0 351 112 402 269l-163 42c-31-80-94-158-238-158-133 0-233 69-233 162 0 83 57 129 188 160l169 40c203 48 298 149 298 302 0 196-179 339-441 339" id="m"/><g id="a"><use transform="matrix(0.01953125,0,0,0.01953125,0,0)" xlink:href="#e"/><use transform="matrix(0.01953125,0,0,0.01953125,25.546875,0)" xlink:href="#f"/><use transform="matrix(0.01953125,0,0,0.01953125,41.23046875,0)" xlink:href="#g"/><use transform="matrix(0.01953125,0,0,0.01953125,50.91796875,0)" xlink:href="#h"/><use transform="matrix(0.01953125,0,0,0.01953125,73.3984375,0)" xlink:href="#g"/><use transform="matrix(0.01953125,0,0,0.01953125,83.0859375,0)" xlink:href="#i"/><use transform="matrix(0.01953125,0,0,0.01953125,92.7734375,0)" xlink:href="#j"/><use transform="matrix(0.01953125,0,0,0.01953125,116.09375,0)" xlink:href="#k"/><use transform="matrix(0.01953125,0,0,0.01953125,140.625,0)" xlink:href="#g"/><use transform="matrix(0.01953125,0,0,0.01953125,150.3125,0)" xlink:href="#l"/><use transform="matrix(0.01953125,0,0,0.01953125,174.296875,0)" xlink:href="#m"/></g><path d="M577 24c-279 0-473-224-473-580 0-354 195-576 474-576 218 0 287 134 324 193h14v-551h180V0H922v-173h-20C865-111 790 24 577 24zm27-161c203 0 314-172 314-421 0-247-108-413-314-413-212 0-317 181-317 413 0 235 108 421 317 421" id="n"/><g id="b"><use transform="matrix(0.01953125,0,0,0.01953125,0,0)" xlink:href="#n"/><use transform="matrix(0.01953125,0,0,0.01953125,24.4921875,0)" xlink:href="#l"/></g><path d="M158 0v-1118h175l1 205c55-151 181-225 313-225 147 0 245 90 285 228 53-141 190-228 352-228 194 0 352 125 352 384V0h-181v-749c0-161-105-225-225-225-151 0-243 103-243 244V0H807v-767c0-124-93-207-219-207-131 0-250 92-250 270V0H158" id="o"/><path d="M628 24c-324 0-524-230-524-574 0-343 198-582 503-582 237 0 487 146 487 559v75H286c9 234 145 362 343 362 132 0 231-58 273-172l174 48C1024-91 857 24 628 24zM287-650h624c-17-190-120-322-304-322-192 0-309 151-320 322" id="p"/><path d="M471 26C259 26 90-98 90-318c0-256 228-303 435-329 202-27 287-16 287-108 0-139-79-219-234-219-161 0-248 86-283 164l-173-57c86-203 278-265 451-265 150 0 419 46 419 395V0H815v-152h-12C765-73 660 26 471 26zm31-159c199 0 310-134 310-271v-155c-30 35-226 55-295 64-131 17-246 59-246 186 0 116 97 176 231 176" id="q"/><g id="c"><use transform="matrix(0.01953125,0,0,0.01953125,0,0)" xlink:href="#o"/><use transform="matrix(0.01953125,0,0,0.01953125,35.0390625,0)" xlink:href="#l"/><use transform="matrix(0.01953125,0,0,0.01953125,59.0234375,0)" xlink:href="#n"/><use transform="matrix(0.01953125,0,0,0.01953125,83.515625,0)" xlink:href="#p"/><use transform="matrix(0.01953125,0,0,0.01953125,106.8359375,0)" xlink:href="#f"/><use transform="matrix(0.01953125,0,0,0.01953125,121.89453125,0)" xlink:href="#q"/><use transform="matrix(0.01953125,0,0,0.01953125,144.35546875,0)" xlink:href="#n"/><use transform="matrix(0.01953125,0,0,0.01953125,168.84765625,0)" xlink:href="#l"/><use transform="matrix(0.01953125,0,0,0.01953125,192.83203125,0)" xlink:href="#f"/></g><path d="M537 14c-226 0-379-139-379-422v-710h180v695c0 172 97 275 253 275 160 0 281-109 281-300v-670h181V0H879v-209C806-46 684 14 537 14" id="r"/><path d="M471 26C259 26 90-98 90-318c0-256 228-303 435-329 202-27 287-16 287-108 0-139-79-219-234-219-161 0-248 86-283 164l-173-57c86-203 278-265 451-265 150 0 419 46 419 395V0H815v-152h-12C765-73 660 26 471 26zm31-159c199 0 310-134 310-271v-155c-30 35-226 55-295 64-131 17-246 59-246 186 0 116 97 176 231 176zm-23-1131l140-294h201l-194 294H479" id="s"/><g id="d"><use transform="matrix(0.01953125,0,0,0.01953125,0,0)" xlink:href="#r"/><use transform="matrix(0.01953125,0,0,0.01953125,23.65234375,0)" xlink:href="#m"/><use transform="matrix(0.01953125,0,0,0.01953125,44.765625,0)" xlink:href="#r"/><use transform="matrix(0.01953125,0,0,0.01953125,68.41796875,0)" xlink:href="#s"/><use transform="matrix(0.01953125,0,0,0.01953125,90.87890625,0)" xlink:href="#f"/><use transform="matrix(0.01953125,0,0,0.01953125,106.5625,0)" xlink:href="#g"/><use transform="matrix(0.01953125,0,0,0.01953125,116.25,0)" xlink:href="#l"/></g></defs></g></svg>