<svg xmlns="http://www.w3.org/2000/svg" xmlns:xlink="http://www.w3.org/1999/xlink" xmlns:lucid="lucid" width="322" height="242"><g transform="translate(21 341)" lucid:page-tab-id=".Q4MUjXso07N"><path d="M-20-332a8 8 0 0 1 8-8h304a8 8 0 0 1 8 8v224a8 8 0 0 1-8 8H-12a8 8 0 0 1-8-8z" stroke="#000" stroke-width="2" fill-opacity="0"/><use xlink:href="#a" transform="matrix(1,0,0,1,-12,-332) translate(89.138671875 38.75)"/><path d="M32.83-252a8 8 0 0 1 8-8h198.34a8 8 0 0 1 8 8v112a8 8 0 0 1-8 8H40.83a8 8 0 0 1-8-8z" fill="none"/><use xlink:href="#b" transform="matrix(1,0,0,1,32.83028645833332,-260) translate(0 30.145399305555568)"/><use xlink:href="#c" transform="matrix(1,0,0,1,32.83028645833332,-260) translate(97.81467013888889 30.145399305555568)"/><use xlink:href="#d" transform="matrix(1,0,0,1,32.83028645833332,-260) translate(0 75.31727430555556)"/><use xlink:href="#c" transform="matrix(1,0,0,1,32.83028645833332,-260) translate(97.03993055555556 75.31727430555556)"/><use xlink:href="#e" transform="matrix(1,0,0,1,32.83028645833332,-260) translate(0 120.48914930555554)"/><use xlink:href="#f" transform="matrix(1,0,0,1,32.83028645833332,-260) translate(85.43402777777779 120.48914930555554)"/><defs><path d="M180 0v-1490h510c348 0 508 194 508 460 0 198-88 351-276 417L1256 0h-220L726-579c-117 2-238 0-356 1V0H180zm190-747h312c235 0 327-108 327-283 0-177-92-293-329-293H370v576" id="g"/><path d="M628 24c-324 0-524-230-524-574 0-343 198-582 503-582 237 0 487 146 487 559v75H286c9 234 145 362 343 362 132 0 231-58 273-172l174 48C1024-91 857 24 628 24zM287-650h624c-17-190-120-322-304-322-192 0-309 151-320 322" id="h"/><path d="M158 418v-1536h174v179h20c37-59 106-193 324-193 279 0 474 222 474 576 0 356-194 580-473 580-213 0-288-135-325-197h-14v591H158zm492-555c209 0 317-186 317-421 0-232-105-413-317-413-206 0-314 166-314 413 0 249 111 421 314 421" id="i"/><path d="M613 24c-304 0-509-231-509-576 0-350 205-580 509-580 305 0 511 230 511 580 0 345-206 576-511 576zm0-161c226 0 329-195 329-415 0-222-103-419-329-419-223 0-326 196-326 419 0 220 103 415 326 415" id="j"/><path d="M158 0v-1118h174v172h12c41-113 157-188 290-188 26 0 70 2 91 3v181c-11-2-60-10-108-10-161 0-279 109-279 260V0H158" id="k"/><path d="M598-1118v154H368v674c0 100 37 144 132 144 23 0 62-6 92-12L629-6c-37 13-88 20-134 20-193 0-307-107-307-290v-688H20v-154h168v-266h180v266h230" id="l"/><g id="a"><use transform="matrix(0.01953125,0,0,0.01953125,0,0)" xlink:href="#g"/><use transform="matrix(0.01953125,0,0,0.01953125,25.15625,0)" xlink:href="#h"/><use transform="matrix(0.01953125,0,0,0.01953125,48.4765625,0)" xlink:href="#i"/><use transform="matrix(0.01953125,0,0,0.01953125,72.96875,0)" xlink:href="#j"/><use transform="matrix(0.01953125,0,0,0.01953125,96.953125,0)" xlink:href="#k"/><use transform="matrix(0.01953125,0,0,0.01953125,112.63671875,0)" xlink:href="#l"/></g><path d="M52 0l541-1490h220L1361 0h-200l-149-416H398L254 0H52zm404-582h497c-103-290-145-390-251-756-108 377-145 460-246 756" id="m"/><path d="M537 14c-226 0-379-139-379-422v-710h180v695c0 172 97 275 253 275 160 0 281-109 281-300v-670h181V0H879v-209C806-46 684 14 537 14" id="n"/><path d="M295 13c-75 0-135-60-135-135s60-135 135-135 135 60 135 135S370 13 295 13zm0-809c-75 0-135-60-135-135s60-135 135-135 135 60 135 135-60 135-135 135" id="o"/><g id="b"><use transform="matrix(0.015190972222222222,0,0,0.015190972222222222,0,0)" xlink:href="#m"/><use transform="matrix(0.015190972222222222,0,0,0.015190972222222222,21.46484375,0)" xlink:href="#n"/><use transform="matrix(0.015190972222222222,0,0,0.015190972222222222,39.861111111111114,0)" xlink:href="#l"/><use transform="matrix(0.015190972222222222,0,0,0.015190972222222222,49.73524305555556,0)" xlink:href="#j"/><use transform="matrix(0.015190972222222222,0,0,0.015190972222222222,68.38975694444444,0)" xlink:href="#k"/><use transform="matrix(0.015190972222222222,0,0,0.015190972222222222,80.10199652777777,0)" xlink:href="#o"/></g><path d="M295 13c-75 0-135-60-135-135s60-135 135-135 135 60 135 135S370 13 295 13" id="p"/><g id="c"><use transform="matrix(0.015190972222222222,0,0,0.015190972222222222,0,0)" xlink:href="#p"/><use transform="matrix(0.015190972222222222,0,0,0.015190972222222222,8.96267361111111,0)" xlink:href="#p"/><use transform="matrix(0.015190972222222222,0,0,0.015190972222222222,17.92534722222222,0)" xlink:href="#p"/><use transform="matrix(0.015190972222222222,0,0,0.015190972222222222,26.888020833333332,0)" xlink:href="#p"/><use transform="matrix(0.015190972222222222,0,0,0.015190972222222222,35.85069444444444,0)" xlink:href="#p"/><use transform="matrix(0.015190972222222222,0,0,0.015190972222222222,44.81336805555556,0)" xlink:href="#p"/><use transform="matrix(0.015190972222222222,0,0,0.015190972222222222,53.77604166666667,0)" xlink:href="#p"/><use transform="matrix(0.015190972222222222,0,0,0.015190972222222222,62.73871527777779,0)" xlink:href="#p"/><use transform="matrix(0.015190972222222222,0,0,0.015190972222222222,71.7013888888889,0)" xlink:href="#p"/><use transform="matrix(0.015190972222222222,0,0,0.015190972222222222,80.66406250000001,0)" xlink:href="#p"/><use transform="matrix(0.015190972222222222,0,0,0.015190972222222222,89.62673611111113,0)" xlink:href="#p"/><use transform="matrix(0.015190972222222222,0,0,0.015190972222222222,98.58940972222224,0)" xlink:href="#p"/><use transform="matrix(0.015190972222222222,0,0,0.015190972222222222,107.55208333333336,0)" xlink:href="#p"/></g><path d="M180 0v-1490h190v1322h690V0H180" id="q"/><path d="M613 24c-304 0-509-231-509-576 0-350 205-580 509-580 216 0 392 114 453 309l-173 49c-33-115-133-197-280-197-223 0-326 196-326 419 0 220 103 415 326 415 150 0 252-85 285-206l172 49C1010-95 832 24 613 24" id="r"/><path d="M471 26C259 26 90-98 90-318c0-256 228-303 435-329 202-27 287-16 287-108 0-139-79-219-234-219-161 0-248 86-283 164l-173-57c86-203 278-265 451-265 150 0 419 46 419 395V0H815v-152h-12C765-73 660 26 471 26zm31-159c199 0 310-134 310-271v-155c-30 35-226 55-295 64-131 17-246 59-246 186 0 116 97 176 231 176" id="s"/><path d="M338-1490V0H158v-1490h180" id="t"/><g id="d"><use transform="matrix(0.015190972222222222,0,0,0.015190972222222222,0,0)" xlink:href="#q"/><use transform="matrix(0.015190972222222222,0,0,0.015190972222222222,17.591145833333332,0)" xlink:href="#j"/><use transform="matrix(0.015190972222222222,0,0,0.015190972222222222,36.24565972222222,0)" xlink:href="#r"/><use transform="matrix(0.015190972222222222,0,0,0.015190972222222222,54.322916666666664,0)" xlink:href="#s"/><use transform="matrix(0.015190972222222222,0,0,0.015190972222222222,71.79253472222221,0)" xlink:href="#t"/><use transform="matrix(0.015190972222222222,0,0,0.015190972222222222,79.32725694444444,0)" xlink:href="#o"/></g><path d="M645 0H180v-1490h484c435 0 692 280 692 742 0 466-257 748-711 748zM370-168h263c363 0 539-218 539-580 0-358-176-574-521-574H370v1154" id="u"/><g id="e"><use transform="matrix(0.015190972222222222,0,0,0.015190972222222222,0,0)" xlink:href="#u"/><use transform="matrix(0.015190972222222222,0,0,0.015190972222222222,22.452256944444443,0)" xlink:href="#s"/><use transform="matrix(0.015190972222222222,0,0,0.015190972222222222,39.921875,0)" xlink:href="#l"/><use transform="matrix(0.015190972222222222,0,0,0.015190972222222222,50.251736111111114,0)" xlink:href="#s"/><use transform="matrix(0.015190972222222222,0,0,0.015190972222222222,67.72135416666667,0)" xlink:href="#o"/></g><g id="f"><use transform="matrix(0.015190972222222222,0,0,0.015190972222222222,0,0)" xlink:href="#p"/><use transform="matrix(0.015190972222222222,0,0,0.015190972222222222,8.96267361111111,0)" xlink:href="#p"/><use transform="matrix(0.015190972222222222,0,0,0.015190972222222222,17.92534722222222,0)" xlink:href="#p"/><use transform="matrix(0.015190972222222222,0,0,0.015190972222222222,26.888020833333332,0)" xlink:href="#p"/><use transform="matrix(0.015190972222222222,0,0,0.015190972222222222,35.85069444444444,0)" xlink:href="#p"/><use transform="matrix(0.015190972222222222,0,0,0.015190972222222222,44.81336805555556,0)" xlink:href="#p"/><use transform="matrix(0.015190972222222222,0,0,0.015190972222222222,53.77604166666667,0)" xlink:href="#p"/><use transform="matrix(0.015190972222222222,0,0,0.015190972222222222,62.73871527777779,0)" xlink:href="#p"/><use transform="matrix(0.015190972222222222,0,0,0.015190972222222222,71.7013888888889,0)" xlink:href="#p"/><use transform="matrix(0.015190972222222222,0,0,0.015190972222222222,80.66406250000001,0)" xlink:href="#p"/><use transform="matrix(0.015190972222222222,0,0,0.015190972222222222,89.62673611111113,0)" xlink:href="#p"/><use transform="matrix(0.015190972222222222,0,0,0.015190972222222222,98.58940972222224,0)" xlink:href="#p"/><use transform="matrix(0.015190972222222222,0,0,0.015190972222222222,107.55208333333336,0)" xlink:href="#p"/><use transform="matrix(0.015190972222222222,0,0,0.015190972222222222,116.51475694444447,0)" xlink:href="#p"/></g></defs></g></svg>