<svg xmlns="http://www.w3.org/2000/svg" xmlns:xlink="http://www.w3.org/1999/xlink" xmlns:lucid="lucid" width="322" height="242"><g transform="translate(41 -139)" lucid:page-tab-id=".Q4MUjXso07N"><path d="M-500 0H500v500H-500z" fill="#fff"/><path d="M-40 148a8 8 0 0 1 8-8h304a8 8 0 0 1 8 8v224a8 8 0 0 1-8 8H-32a8 8 0 0 1-8-8z" stroke="#000" stroke-width="2" fill-opacity="0"/><use xlink:href="#a" transform="matrix(1,0,0,1,-32,148) translate(123.3088107638889 21.74305555555555)"/><path d="M-20 208a8 8 0 0 1 8-8h264a8 8 0 0 1 8 8v24a8 8 0 0 1-8 8H-12a8 8 0 0 1-8-8z" stroke="#000" stroke-width="2" fill="#fff"/><use xlink:href="#b" transform="matrix(1,0,0,1,0,200) translate(77.0070529513889 28.16460503472222)"/><use xlink:href="#c" transform="matrix(1,0,0,1,0,200) translate(153.86393229166666 28.16460503472222)"/><path d="M-20 268a8 8 0 0 1 8-8h264a8 8 0 0 1 8 8v24a8 8 0 0 1-8 8H-12a8 8 0 0 1-8-8z" stroke="#000" stroke-width="2" fill="#fff"/><use xlink:href="#b" transform="matrix(1,0,0,1,0,260) translate(74.72753906250001 28.16460503472222)"/><use xlink:href="#d" transform="matrix(1,0,0,1,0,260) translate(151.58441840277777 28.16460503472222)"/><path d="M-20 328a8 8 0 0 1 8-8h264a8 8 0 0 1 8 8v24a8 8 0 0 1-8 8H-12a8 8 0 0 1-8-8z" stroke="#000" stroke-width="2" fill="#fff"/><g><use xlink:href="#b" transform="matrix(1,0,0,1,0,320) translate(71.87266710069446 28.16460503472222)"/><use xlink:href="#e" transform="matrix(1,0,0,1,0,320) translate(148.72954644097223 28.16460503472222)"/></g><defs><path d="M180 0v-1490h901v168H370v510h643v168H370V0H180" id="f"/><path d="M158 0v-1118h180V0H158zm91-1301c-68 0-125-53-125-119s57-119 125-119c69 0 126 53 126 119s-57 119-126 119" id="g"/><path d="M613 24c-304 0-509-231-509-576 0-350 205-580 509-580 216 0 392 114 453 309l-173 49c-33-115-133-197-280-197-223 0-326 196-326 419 0 220 103 415 326 415 150 0 252-85 285-206l172 49C1010-95 832 24 613 24" id="h"/><path d="M338-670V0H158v-1490h180v566c73-149 190-208 336-208 226 0 379 139 379 422V0H872v-695c0-172-96-275-252-275-161 0-282 109-282 300" id="i"/><path d="M471 26C259 26 90-98 90-318c0-256 228-303 435-329 202-27 287-16 287-108 0-139-79-219-234-219-161 0-248 86-283 164l-173-57c86-203 278-265 451-265 150 0 419 46 419 395V0H815v-152h-12C765-73 660 26 471 26zm31-159c199 0 310-134 310-271v-155c-30 35-226 55-295 64-131 17-246 59-246 186 0 116 97 176 231 176" id="j"/><g id="a"><use transform="matrix(0.010959201388888886,0,0,0.010959201388888886,0,0)" xlink:href="#f"/><use transform="matrix(0.010959201388888886,0,0,0.010959201388888886,13.249674479166664,0)" xlink:href="#g"/><use transform="matrix(0.010959201388888886,0,0,0.010959201388888886,18.68543836805555,0)" xlink:href="#h"/><use transform="matrix(0.010959201388888886,0,0,0.010959201388888886,31.50770399305555,0)" xlink:href="#i"/><use transform="matrix(0.010959201388888886,0,0,0.010959201388888886,44.779296874999986,0)" xlink:href="#j"/></g><path d="M180 0v-1490h510c348 0 508 194 508 460 0 198-88 351-276 417L1256 0h-220L726-579c-117 2-238 0-356 1V0H180zm190-747h312c235 0 327-108 327-283 0-177-92-293-329-293H370v576" id="k"/><path d="M628 24c-324 0-524-230-524-574 0-343 198-582 503-582 237 0 487 146 487 559v75H286c9 234 145 362 343 362 132 0 231-58 273-172l174 48C1024-91 857 24 628 24zM287-650h624c-17-190-120-322-304-322-192 0-309 151-320 322" id="l"/><path d="M158 418v-1536h174v179h20c37-59 106-193 324-193 279 0 474 222 474 576 0 356-194 580-473 580-213 0-288-135-325-197h-14v591H158zm492-555c209 0 317-186 317-421 0-232-105-413-317-413-206 0-314 166-314 413 0 249 111 421 314 421" id="m"/><path d="M613 24c-304 0-509-231-509-576 0-350 205-580 509-580 305 0 511 230 511 580 0 345-206 576-511 576zm0-161c226 0 329-195 329-415 0-222-103-419-329-419-223 0-326 196-326 419 0 220 103 415 326 415" id="n"/><path d="M158 0v-1118h174v172h12c41-113 157-188 290-188 26 0 70 2 91 3v181c-11-2-60-10-108-10-161 0-279 109-279 260V0H158" id="o"/><path d="M598-1118v154H368v674c0 100 37 144 132 144 23 0 62-6 92-12L629-6c-37 13-88 20-134 20-193 0-307-107-307-290v-688H20v-154h168v-266h180v266h230" id="p"/><g id="b"><use transform="matrix(0.010959201388888886,0,0,0.010959201388888886,0,0)" xlink:href="#k"/><use transform="matrix(0.010959201388888886,0,0,0.010959201388888886,14.115451388888886,0)" xlink:href="#l"/><use transform="matrix(0.010959201388888886,0,0,0.010959201388888886,27.200737847222214,0)" xlink:href="#m"/><use transform="matrix(0.010959201388888886,0,0,0.010959201388888886,40.94357638888888,0)" xlink:href="#n"/><use transform="matrix(0.010959201388888886,0,0,0.010959201388888886,54.40147569444443,0)" xlink:href="#o"/><use transform="matrix(0.010959201388888886,0,0,0.010959201388888886,63.2017144097222,0)" xlink:href="#p"/></g><path d="M653-1490V0H466v-1314h-10L96-1047v-204l324-239h233" id="q"/><use transform="matrix(0.010959201388888886,0,0,0.010959201388888886,0,0)" xlink:href="#q" id="c"/><path d="M154 0v-137l495-537c165-179 249-281 249-418 0-156-121-253-280-253-170 0-278 110-278 278H158c0-264 200-443 465-443 266 0 455 183 455 416 0 161-73 288-336 568L416-179v12h687V0H154" id="r"/><use transform="matrix(0.010959201388888886,0,0,0.010959201388888886,0,0)" xlink:href="#r" id="d"/><path d="M295 13c-75 0-135-60-135-135s60-135 135-135 135 60 135 135S370 13 295 13" id="s"/><g id="e"><use transform="matrix(0.010959201388888886,0,0,0.010959201388888886,0,0)" xlink:href="#s"/><use transform="matrix(0.010959201388888886,0,0,0.010959201388888886,6.465928819444443,0)" xlink:href="#s"/><use transform="matrix(0.010959201388888886,0,0,0.010959201388888886,12.931857638888886,0)" xlink:href="#s"/></g></defs></g></svg>